<svg width="42" height="43" viewBox="0 0 42 43" fill="none" xmlns="http://www.w3.org/2000/svg">
<g clip-path="url(#clip0_3207_97)">
<path d="M7.4375 0.5H34.5625C38.675 0.5 42 3.91026 42 8.12821V34.8718C42 39.0897 38.675 42.5 34.5625 42.5H7.4375C3.325 42.5 0 39.0897 0 34.8718V8.12821C0 3.91026 3.325 0.5 7.4375 0.5Z" fill="#330000"/>
<path d="M21.05 26.3149H14.8881L13.6292 30.2488C13.596 30.3995 13.4635 30.4999 13.3145 30.4832H10.2004C10.0181 30.4832 9.96845 30.3827 10.0181 30.1818L15.3519 14.6638C15.4016 14.4964 15.4513 14.3122 15.5175 14.1114C15.5838 13.7598 15.6169 13.3915 15.6169 13.0233C15.6003 12.9396 15.6666 12.8559 15.7494 12.8391C15.766 12.8391 15.7825 12.8391 15.7991 12.8391H20.0396C20.1721 12.8391 20.2383 12.8893 20.2549 12.973L26.3009 30.2153C26.3506 30.3995 26.3009 30.4832 26.1353 30.4832H22.6733C22.5574 30.4999 22.4414 30.4162 22.4083 30.299L21.05 26.3149ZM15.8488 22.9166H20.0561C19.9568 22.5651 19.8242 22.1466 19.6752 21.7114C19.5261 21.2594 19.377 20.7739 19.2279 20.2717C19.0623 19.7528 18.9132 19.2506 18.7476 18.7316C18.5819 18.2127 18.4328 17.7272 18.3003 17.2418C18.1678 16.773 18.0519 16.3378 17.9359 15.936H17.9028C17.7537 16.6559 17.5715 17.3757 17.3396 18.0955C17.0911 18.899 16.8427 19.736 16.5776 20.573C16.3457 21.4268 16.0973 22.2136 15.8488 22.9166Z" fill="#FF9A00"/>
<path d="M29.912 15.7018C29.3653 15.7185 28.8353 15.5009 28.4377 15.1159C28.0568 14.6974 27.858 14.1449 27.8746 13.5758C27.858 13.0066 28.0733 12.4709 28.4709 12.0859C28.8684 11.7009 29.3985 11.5 29.9451 11.5C30.5911 11.5 31.088 11.7009 31.4525 12.0859C31.8169 12.4877 32.0156 13.0233 31.9991 13.5758C32.0156 14.1449 31.8169 14.6974 31.4193 15.1159C31.0383 15.5176 30.4752 15.7352 29.912 15.7018ZM28.0568 30.2322V17.3423C28.0568 17.1749 28.123 17.1079 28.2721 17.1079H31.5518C31.7009 17.1079 31.7672 17.1916 31.7672 17.3423V30.2322C31.7672 30.4163 31.7009 30.5 31.5518 30.5H28.3052C28.1396 30.5 28.0568 30.3996 28.0568 30.2322Z" fill="#FF9A00"/>
</g>
<defs>
<clipPath id="clip0_3207_97">
<rect width="42" height="42" fill="white" transform="translate(0 0.5)"/>
</clipPath>
</defs>
</svg>
