<svg width="46" height="46" viewBox="0 0 46 46" fill="none" xmlns="http://www.w3.org/2000/svg">
<path d="M0 10.6355C0 4.76169 4.54939 0 10.1613 0H35.8386C41.4507 0 46 4.76169 46 10.6355V35.3645C46 41.2383 41.4507 46 35.8386 46H10.1613C4.5494 46 0 41.2383 0 35.3645V10.6355Z" fill="#F68DFF"/>
<path d="M28.5912 14.2167C28.4653 14.1183 28.3187 14.0509 28.1628 14.0198C28.0069 13.9885 27.8459 13.9944 27.6927 14.0369L19.768 16.1964C19.218 16.3459 18.8114 16.889 18.817 17.4662V26.5748C18.817 26.8465 18.6435 27.081 18.3752 27.1725L18.3705 27.1745C18.1699 27.2449 17.9554 27.3116 17.7356 27.38C16.4594 27.7768 15.0001 28.2307 15.0001 29.7954C14.9761 32.7929 20.0722 32.6762 20.0892 29.7954V21.2512C20.0892 20.8322 20.087 20.4774 20.0852 20.1751C20.0752 18.5023 20.0748 18.4372 20.4981 18.0125C20.9387 17.5704 26.4277 16.3489 27.723 16.0655V24.4659C27.723 24.7376 27.5496 24.9722 27.2813 25.0637L27.2765 25.0657C27.0759 25.1361 26.8615 25.2028 26.6416 25.2712C25.3655 25.668 23.9061 26.1218 23.9061 27.6866C23.8818 30.7212 28.9788 30.4762 28.9952 27.6866V19.1424C28.9952 19.0644 28.996 18.9534 28.9969 18.8198C28.9994 18.4497 29.0031 17.9058 28.9952 17.4083V15.0481C28.9961 14.8872 28.9601 14.7284 28.8899 14.5841C28.8198 14.4398 28.7175 14.314 28.5912 14.2167Z" fill="#C038CC"/>
</svg>
