<svg width="103" height="104" viewBox="0 0 103 104" fill="none" xmlns="http://www.w3.org/2000/svg">
<g clip-path="url(#clip0_2_157)">
<path d="M51.1598 101.997C79.0205 101.997 101.606 79.4111 101.606 51.5505C101.606 23.6898 79.0205 1.10425 51.1598 1.10425C23.2992 1.10425 0.713623 23.6898 0.713623 51.5505C0.713623 79.4111 23.2992 101.997 51.1598 101.997Z" fill="white"/>
<path d="M51.1599 102.711C22.9535 102.711 0 79.757 0 51.5505C0 23.3441 22.9535 0.390625 51.1599 0.390625C79.3664 0.390625 102.32 23.3441 102.32 51.5505C102.32 79.757 79.3664 102.711 51.1599 102.711ZM51.1599 1.81807C23.7386 1.81807 1.42745 24.1292 1.42745 51.5505C1.42745 78.9719 23.7386 101.283 51.1599 101.283C78.5813 101.283 100.892 78.9719 100.892 51.5505C100.892 24.1292 78.5813 1.81807 51.1599 1.81807Z" fill="#292F36"/>
<path d="M58.3543 6.2289C58.6969 6.25745 58.9967 6.27172 59.2394 6.27172L59.2108 6.50012C58.8111 6.55721 58.4685 6.85698 58.1973 7.42796L54.8 14.2226L54.7001 14.2083L54.6144 14.1941L52.459 6.61431C52.3162 6.1147 52.0735 5.84349 51.731 5.80066L51.7595 5.57227C52.0735 5.62937 52.4875 5.67219 53.0014 5.72929C53.6723 5.78639 54.1719 5.82921 54.5002 5.82921L54.4717 6.0576C54.1719 6.04333 53.9578 6.0576 53.8293 6.10043C53.7008 6.14325 53.6295 6.25745 53.6152 6.40019C53.6009 6.52866 53.6295 6.71423 53.7008 6.9569L55.2853 12.7523L57.6406 8.01322C57.8405 7.6278 57.9404 7.31376 57.9689 7.08537C57.9975 6.8427 57.9261 6.65714 57.7691 6.52866C57.6121 6.40019 57.3551 6.32882 57.0125 6.286L57.0411 6.0576C57.455 6.12898 57.8976 6.18608 58.3543 6.2289Z" fill="#292F36"/>
<path d="M67.9466 9.24085C67.8039 9.24085 67.6897 9.29794 67.6041 9.41214C67.5184 9.52634 67.4185 9.71191 67.3186 9.98312L65.2773 15.4075C65.1774 15.6787 65.1203 15.8928 65.1203 16.0356C65.1203 16.1783 65.1631 16.2925 65.263 16.3781C65.363 16.4638 65.5485 16.5637 65.8055 16.6779L65.7198 16.892C65.3915 16.7493 64.9347 16.5637 64.3495 16.3353C63.7214 16.0927 63.2503 15.9356 62.9363 15.8357L63.0219 15.6216C63.2931 15.7072 63.493 15.7501 63.6215 15.7501C63.7499 15.7501 63.8784 15.693 63.964 15.5788C64.0497 15.4646 64.1496 15.279 64.2495 15.0078L66.2908 9.58343C66.3907 9.31222 66.4478 9.0981 66.4478 8.95536C66.4478 8.81261 66.405 8.69841 66.3051 8.61277C66.2051 8.52712 66.0196 8.4272 65.7626 8.313L65.8483 8.09888C66.1481 8.22735 66.6048 8.41292 67.2329 8.65559C67.8182 8.88398 68.2892 9.041 68.6318 9.14092L68.5462 9.35504C68.2892 9.2694 68.0894 9.22657 67.9466 9.24085Z" fill="#292F36"/>
<path d="M80.651 16.7921C80.5083 16.7636 80.3655 16.8064 80.2371 16.8921C80.1086 16.9777 79.9516 17.149 79.7803 17.3917L75.6407 23.0016L75.4266 22.8445L75.9833 13.823L72.3147 18.7906C72.1434 19.0332 72.0292 19.2331 71.9721 19.3901C71.915 19.5471 71.9436 19.6899 72.0149 19.8326C72.0863 19.9754 72.2576 20.1324 72.5003 20.3322L72.3575 20.5178C72.1434 20.3322 71.8294 20.0896 71.4154 19.7755C71.0443 19.5043 70.7445 19.2902 70.5161 19.1617L70.6589 18.9761C70.8872 19.1332 71.0728 19.2188 71.2156 19.2331C71.3583 19.2616 71.5011 19.2188 71.6295 19.1332C71.758 19.0332 71.915 18.8762 72.0863 18.6336L75.4551 14.0657C75.6264 13.823 75.7406 13.6375 75.7834 13.509C75.8262 13.3805 75.812 13.2521 75.7406 13.1379C75.6692 13.0237 75.5265 12.8809 75.2981 12.6953L75.4408 12.5098C75.6264 12.6811 75.9119 12.9095 76.2973 13.1807C76.5828 13.3948 76.8255 13.5661 77.0538 13.6946L76.5971 21.2601L79.5662 17.2347C79.7375 16.992 79.8659 16.7921 79.9088 16.6351C79.9516 16.4781 79.9373 16.3354 79.8659 16.1926C79.7946 16.0499 79.6233 15.8786 79.3806 15.693L79.5233 15.5074C79.7375 15.693 80.0515 15.9357 80.4655 16.2497C80.8366 16.5209 81.1364 16.735 81.3648 16.8635L81.222 17.0491C80.9793 16.9063 80.7938 16.8064 80.651 16.7921Z" fill="#292F36"/>
<path d="M85.433 23.2299C85.8042 22.9587 86.1896 22.6589 86.6035 22.2878C86.9604 22.8302 87.5885 23.7295 88.4878 25C89.3871 26.2561 90.0294 27.1411 90.4149 27.655C89.9295 27.9405 89.5156 28.1975 89.1444 28.4544C88.8304 28.6828 88.5734 28.8826 88.3879 29.0396L88.2309 28.8255C88.6876 28.4258 89.0017 28.0975 89.1872 27.8549C89.3728 27.6122 89.4442 27.3553 89.4299 27.084C89.4156 26.8128 89.2443 26.4845 88.9731 26.0848L88.602 25.5709L83.1919 29.4251C82.935 29.6106 82.7494 29.7819 82.6638 29.9104C82.5781 30.0389 82.5496 30.1959 82.6067 30.3672C82.6495 30.5242 82.778 30.7526 82.9635 31.0381L82.778 31.1808C82.5639 30.8382 82.2355 30.3529 81.8073 29.7677C81.3505 29.1253 81.0079 28.6685 80.7795 28.383L80.9651 28.2403C81.1792 28.5115 81.3505 28.6971 81.4933 28.797C81.636 28.8969 81.7788 28.9255 81.9358 28.8826C82.0928 28.8398 82.3069 28.7256 82.5639 28.54L87.9739 24.6859L87.6028 24.172C87.3173 23.7723 87.0603 23.5297 86.8177 23.4155C86.575 23.3013 86.3038 23.287 86.0183 23.3869C85.7328 23.4869 85.3188 23.6724 84.7907 23.9722L84.6337 23.7581C84.8478 23.6439 85.1047 23.4726 85.433 23.2299Z" fill="#292F36"/>
<path d="M88.1736 43.0429L87.9452 43.1142C87.8596 42.8002 87.7454 42.4005 87.5741 41.9152C87.36 41.2871 87.1887 40.816 87.0602 40.502L87.2886 40.4306C87.3885 40.7018 87.5027 40.9017 87.5884 41.0016C87.6883 41.1015 87.8168 41.1301 87.9595 41.073C88.088 41.0301 88.245 40.9302 88.4306 40.7732L90.015 39.4742L89.1157 36.8049L87.7882 36.7478C87.36 36.7192 87.0317 36.7478 86.8033 36.8334C86.5749 36.9191 86.4321 37.0475 86.375 37.2331C86.3322 37.4187 86.3608 37.6899 86.4607 38.0182L86.2323 38.0896C86.1181 37.6614 85.9753 37.2331 85.8326 36.8049C85.7184 36.4766 85.6185 36.2054 85.5186 35.9912L85.7469 35.9199C85.9468 36.2624 86.375 36.448 87.0031 36.4623L94.5972 36.8049L94.6543 36.9762L88.6019 42.0151C88.2307 42.3719 88.088 42.7003 88.1736 43.0429ZM93.1269 36.9762L89.387 36.8192L90.2292 39.3315L93.1269 36.9762Z" fill="#292F36"/>
<path d="M89.2159 53.963C89.3586 53.9059 89.43 53.8345 89.43 53.7346C89.43 53.6775 89.4157 53.6347 89.3872 53.5919C89.3586 53.549 89.3015 53.4634 89.2159 53.3492C89.0018 53.078 88.8447 52.7925 88.7305 52.507C88.6163 52.2215 88.5592 51.8932 88.5592 51.5363C88.545 50.737 88.702 50.0518 89.016 49.4665C89.3443 48.8813 89.8011 48.4387 90.4292 48.1247C91.043 47.8107 91.7853 47.6536 92.656 47.6394C93.5553 47.6251 94.3404 47.7678 95.0113 48.0819C95.6822 48.3959 96.2104 48.8242 96.5815 49.3951C96.9527 49.9661 97.1525 50.6085 97.1525 51.3222C97.1525 51.6362 97.124 51.9217 97.0669 52.1644C97.0098 52.4071 96.9241 52.6212 96.8242 52.8068C96.7243 52.9923 96.5958 53.2064 96.4245 53.4348C96.3531 53.5348 96.3103 53.6204 96.3103 53.6775C96.3103 53.8203 96.553 53.9202 97.024 53.963V54.2342C96.5244 54.2057 95.6251 54.2057 94.3404 54.2342V53.963C94.7544 53.8916 95.097 53.806 95.3682 53.7203C95.6394 53.6347 95.8678 53.5062 96.0677 53.3492C96.3389 53.1208 96.5673 52.821 96.7243 52.4499C96.8813 52.0788 96.9527 51.7076 96.9527 51.3079C96.9384 50.794 96.7671 50.3515 96.4245 49.9661C96.0819 49.5807 95.5966 49.2952 94.9828 49.0811C94.3547 48.8813 93.641 48.7813 92.813 48.7956C91.8709 48.8099 91.1144 48.9241 90.5149 49.1382C89.9153 49.3523 89.4871 49.6664 89.2016 50.0803C88.9161 50.4943 88.7876 51.0224 88.8019 51.6648C88.8162 52.1359 88.9447 52.5355 89.1873 52.8781C89.2872 53.0209 89.3729 53.1065 89.4728 53.1493C89.5585 53.1922 89.6869 53.2064 89.8439 53.2064L90.9716 53.1922C91.3 53.1922 91.5283 53.1493 91.6854 53.0922C91.8281 53.0351 91.9423 52.921 91.9851 52.7497C92.0422 52.5926 92.0708 52.3357 92.0708 51.9931H92.2992C92.2849 52.3785 92.2706 52.921 92.2849 53.649C92.2992 54.1914 92.3134 54.6053 92.342 54.8623H92.1136C92.0993 54.6767 92.0565 54.5483 92.0137 54.4769C91.9709 54.4055 91.8709 54.3484 91.7425 54.3199C91.614 54.2913 91.3999 54.277 91.1001 54.2913L88.7876 54.3341V54.1057C88.9161 54.0486 89.0731 54.0201 89.2159 53.963Z" fill="#292F36"/>
<path d="M87.517 66.1107C87.1031 65.9822 86.6177 65.8537 86.061 65.7395C86.2466 65.2399 86.5178 64.3977 86.9032 63.1986C87.36 61.7712 87.6883 60.6863 87.8882 59.9583L88.1166 60.0297C88.0452 60.3009 88.0166 60.5008 88.0166 60.6435C88.0309 60.7862 88.088 60.8862 88.2022 60.9718C88.3164 61.0575 88.5163 61.1431 88.7875 61.2288L94.3117 62.9703C94.5972 63.0559 94.7971 63.0987 94.9398 63.0987C95.0825 63.0987 95.1967 63.0416 95.2824 62.9274C95.368 62.8132 95.4537 62.6277 95.5536 62.3707L95.782 62.4421C95.525 63.1701 95.1825 64.2406 94.7257 65.668C94.3831 66.7529 94.1404 67.5381 94.0262 68.0092C93.5552 67.8093 93.1269 67.638 92.7272 67.5238C92.4417 67.4382 92.1991 67.3668 92.0278 67.3383L92.1134 67.0812C92.613 67.1811 92.9985 67.224 93.2554 67.224C93.5123 67.224 93.7265 67.1384 93.8978 66.9671C94.069 66.8101 94.2118 66.5245 94.3403 66.1391L94.6258 65.2114C94.7114 64.9401 94.7542 64.7403 94.74 64.6118C94.7257 64.4834 94.6829 64.3692 94.5687 64.2835C94.4545 64.1979 94.2689 64.1122 93.9834 64.0266L91.3569 63.1986L91.1285 63.9409C91.0143 64.3121 91.0428 64.5976 91.2284 64.7974C91.414 64.9972 91.6138 65.1399 91.8422 65.2398C92.0706 65.3397 92.2134 65.4112 92.2705 65.4397L92.1848 65.6967C91.8279 65.5539 91.4854 65.4254 91.1428 65.3256L90.6146 65.1685C90.2435 65.0543 89.701 64.8973 89.0159 64.7403L89.1015 64.4833C89.1586 64.4975 89.3442 64.5262 89.6582 64.5976C89.9723 64.6546 90.2435 64.6261 90.4576 64.5119C90.6717 64.3977 90.8145 64.1836 90.9144 63.8838L91.1428 63.1415L88.4592 62.2994C88.1737 62.2137 87.9738 62.1709 87.8311 62.1709C87.6883 62.1709 87.5741 62.228 87.5028 62.3422C87.4171 62.4564 87.3315 62.6419 87.2458 62.9132L86.9889 63.7268C86.8461 64.1979 86.789 64.569 86.8461 64.8402C86.889 65.1257 87.0317 65.3541 87.2744 65.5539C87.517 65.7395 87.8882 65.9535 88.3878 66.1819L88.3021 66.439C88.1308 66.3105 87.8596 66.2249 87.517 66.1107Z" fill="#292F36"/>
<path d="M83.4489 83.6255C83.506 83.4971 83.4918 83.3686 83.4347 83.2401C83.3776 83.1116 83.2348 82.9546 83.0207 82.7405L78.824 78.7294C78.6099 78.5295 78.4386 78.4011 78.3101 78.344C78.1816 78.2869 78.0532 78.2869 77.9247 78.344C77.7962 78.4011 77.6392 78.5295 77.4394 78.7294L77.2681 78.5723C77.5393 78.3297 77.8819 77.9728 78.3244 77.5303C78.7812 77.045 79.1238 76.6738 79.3379 76.4312L79.5092 76.5882C79.3236 76.8023 79.2094 76.9736 79.1523 77.0878C79.0952 77.2163 79.1095 77.3447 79.1666 77.4732C79.2237 77.6017 79.3664 77.7587 79.5805 77.9728L83.7773 81.984C83.9914 82.1838 84.1627 82.3123 84.2911 82.3694C84.4196 82.4265 84.5481 82.4265 84.6765 82.3694C84.805 82.3123 84.962 82.1838 85.1619 81.984L85.3332 82.141C85.0905 82.3551 84.7336 82.712 84.2769 83.1973C83.8344 83.6541 83.506 84.0252 83.2776 84.2964L83.1064 84.1394C83.2776 83.9253 83.3918 83.754 83.4489 83.6255Z" fill="#292F36"/>
<path d="M71.5582 92.3328C71.6438 92.2044 71.6581 92.0759 71.6295 91.9189C71.601 91.7619 71.5011 91.562 71.344 91.2908L67.804 85.2812L68.0323 85.1385L76.1117 89.1782L72.9856 83.868C72.8286 83.6111 72.7001 83.4255 72.5717 83.3256C72.4432 83.2257 72.3004 83.1829 72.1434 83.1971C71.9864 83.2114 71.7723 83.2971 71.5011 83.4398L71.3726 83.24C71.6295 83.1258 71.9721 82.9259 72.4146 82.669C72.8143 82.4263 73.1141 82.2407 73.3282 82.0837L73.4424 82.2836C73.214 82.4263 73.057 82.569 72.9856 82.6975C72.9 82.826 72.8857 82.9545 72.9142 83.1115C72.9428 83.2685 73.0427 83.4683 73.1997 83.7396L76.0832 88.6357C76.2259 88.8927 76.3544 89.064 76.4686 89.1496C76.5828 89.2353 76.697 89.2781 76.8397 89.2495C76.9682 89.221 77.168 89.1496 77.4107 89.0211L77.5249 89.221C77.2965 89.3352 76.9825 89.5065 76.5685 89.7491C76.2688 89.9204 76.0118 90.0917 75.7977 90.2345L69.0173 86.8514L71.5582 91.1623C71.7152 91.4193 71.8436 91.6048 71.9721 91.7048C72.0863 91.8047 72.2291 91.8475 72.4004 91.8332C72.5717 91.8189 72.7858 91.7333 73.057 91.5906L73.1712 91.7904C72.9142 91.9046 72.5716 92.1044 72.1291 92.3614C71.7295 92.604 71.4297 92.7896 71.2156 92.9466L71.1014 92.7468C71.3155 92.5898 71.4725 92.447 71.5582 92.3328Z" fill="#292F36"/>
<path d="M63.7072 94.203C63.8071 94.6456 63.9356 95.1309 64.1069 95.6448C63.4645 95.759 62.3939 95.9874 60.8808 96.3014C59.3677 96.6297 58.3114 96.8724 57.6833 97.0294C57.612 96.4727 57.5406 95.9874 57.4407 95.5449C57.355 95.1594 57.2836 94.8454 57.198 94.617L57.4549 94.5599C57.6405 95.1452 57.8118 95.5591 57.9688 95.8303C58.1258 96.1016 58.3257 96.2729 58.5826 96.3585C58.8396 96.4441 59.2107 96.4299 59.6818 96.3299L60.2956 96.2015L58.8967 89.7066C58.8253 89.3925 58.7539 89.1641 58.654 89.0357C58.5541 88.9072 58.4399 88.8215 58.2686 88.8073C58.0973 88.7787 57.8404 88.8073 57.4978 88.8644L57.4549 88.636C57.8546 88.5789 58.4256 88.4647 59.1393 88.3077C59.8959 88.1364 60.4669 88.0079 60.8237 87.908L60.8666 88.1364C60.524 88.222 60.2956 88.3077 60.1528 88.3933C60.0101 88.479 59.9244 88.6074 59.8959 88.7644C59.8673 88.9215 59.8816 89.1641 59.953 89.4782L61.3519 95.9731L61.9657 95.8446C62.4368 95.7447 62.7793 95.6019 62.9792 95.4164C63.179 95.2308 63.2932 94.9881 63.3218 94.6884C63.3503 94.3886 63.336 93.9318 63.2647 93.3323L63.5216 93.2752C63.5644 93.5036 63.6215 93.8176 63.7072 94.203Z" fill="#292F36"/>
<path d="M44.7648 90.1918C44.8076 89.7493 44.8219 89.2497 44.8219 88.6929C45.35 88.7643 46.2351 88.85 47.4912 88.9642C48.9758 89.0926 50.1035 89.1926 50.8743 89.2354L50.86 89.4638C50.5745 89.4495 50.3747 89.4638 50.2462 89.5066C50.1177 89.5494 50.0178 89.6208 49.9607 89.7493C49.9036 89.8777 49.8608 90.0919 49.8323 90.3773L49.3184 96.1585C49.2898 96.444 49.3041 96.6581 49.3326 96.8009C49.3612 96.9436 49.4468 97.0435 49.5753 97.1006C49.7038 97.1577 49.9036 97.2148 50.1748 97.2434L50.1606 97.4718C49.404 97.3861 48.2763 97.2719 46.7918 97.1435C45.6498 97.0435 44.8362 96.9865 44.3508 96.9579C44.4508 96.4583 44.5221 96.0015 44.5507 95.5875C44.5792 95.2878 44.5935 95.0451 44.5792 94.8595L44.8504 94.8881C44.8647 95.402 44.8933 95.7731 44.9646 96.0301C45.0217 96.287 45.1502 96.4726 45.35 96.601C45.5356 96.7295 45.8497 96.8152 46.2493 96.8437L47.22 96.9293C47.5055 96.9579 47.7053 96.9436 47.8338 96.9151C47.9623 96.8865 48.0622 96.8009 48.1193 96.6724C48.1764 96.5439 48.2192 96.3298 48.2478 96.0443L48.4904 93.3036L47.7196 93.2322C47.3342 93.2037 47.063 93.2893 46.906 93.5177C46.7632 93.7461 46.649 93.9745 46.6062 94.2172C46.5491 94.4599 46.5206 94.6169 46.5063 94.6882L46.2351 94.6597C46.2922 94.2743 46.335 93.9174 46.3778 93.5606L46.4206 93.0039C46.4492 92.6042 46.4777 92.0617 46.5063 91.348L46.7775 91.3766C46.7775 91.4337 46.7918 91.6192 46.7918 91.9475C46.806 92.2759 46.8774 92.5328 47.0487 92.7041C47.2057 92.8897 47.4484 92.9896 47.7624 93.0181L48.5333 93.0895L48.7759 90.2917C48.8045 90.0062 48.7902 89.7921 48.7617 89.6493C48.7331 89.5209 48.6475 89.4209 48.519 89.3639C48.3905 89.3068 48.1907 89.2639 47.9195 89.2354L47.063 89.164C46.5777 89.1212 46.2065 89.1497 45.9353 89.2639C45.6784 89.3638 45.4785 89.5637 45.3358 89.8349C45.193 90.1061 45.0788 90.5201 44.9646 91.0625L44.6934 91.034C44.6934 90.8199 44.722 90.5344 44.7648 90.1918Z" fill="#292F36"/>
<path d="M33.5308 84.8959C33.7449 84.8531 33.9875 84.8959 34.2445 85.0101C34.5443 85.1386 34.7441 85.3242 34.8583 85.5668C34.9725 85.8238 34.9868 86.1806 34.9154 86.6517L34.7013 87.8222C34.6299 88.2362 34.5871 88.5502 34.5728 88.7929C34.5585 89.0213 34.6156 89.2354 34.7155 89.421C34.8155 89.6065 35.001 89.7493 35.2723 89.8635L36.3 90.2917L37.3421 87.8079C37.4563 87.5367 37.5134 87.3369 37.5276 87.1941C37.5419 87.0514 37.4848 86.9372 37.3849 86.8373C37.285 86.7374 37.1137 86.6374 36.8567 86.5232L36.9424 86.3091C37.2707 86.4661 37.7132 86.666 38.2985 86.9087C38.9123 87.1656 39.3833 87.3512 39.6974 87.4511L39.6117 87.6652C39.3405 87.5653 39.1407 87.5225 39.0122 87.5082C38.8694 87.5082 38.7552 87.551 38.6696 87.6652C38.5697 87.7651 38.4698 87.9507 38.3556 88.2219L36.1145 93.5749C36.0003 93.8461 35.9432 94.0459 35.9289 94.1887C35.9146 94.3314 35.9717 94.4456 36.0716 94.5455C36.1716 94.6454 36.3428 94.7454 36.5998 94.8738L36.5141 95.088C36.2144 94.9452 35.7861 94.7454 35.2152 94.5027C34.9297 94.3885 34.6299 94.26 34.2873 94.1173C33.9447 93.9746 33.7163 93.8889 33.5879 93.8318C33.0312 93.5891 32.5886 93.3179 32.2603 92.9896C31.932 92.6613 31.7464 92.3187 31.6608 91.9476C31.5752 91.5764 31.618 91.2196 31.775 90.8627C31.8892 90.5772 32.0748 90.3203 32.3317 90.0919C32.5886 89.8635 32.917 89.6922 33.3166 89.6065C33.7163 89.5209 34.2017 89.5352 34.7298 89.6636L34.6014 89.5923C34.3016 89.4067 34.0732 89.2211 33.9305 89.0213C33.7877 88.8357 33.6878 88.6216 33.6592 88.3932C33.6164 88.1648 33.6307 87.8793 33.6878 87.5367L33.8876 86.3234C33.9304 86.0807 33.959 85.8952 33.959 85.7524C33.959 85.6097 33.9447 85.4955 33.9019 85.4098C33.8591 85.3242 33.7877 85.2528 33.6878 85.2243C33.5736 85.1672 33.4594 85.1672 33.3595 85.1957C33.2595 85.2243 33.1168 85.2956 32.9312 85.3955L32.817 85.21C33.074 85.053 33.3166 84.9388 33.5308 84.8959ZM34.2445 89.9777C33.9019 90.0205 33.6307 90.149 33.4166 90.3631C33.2024 90.5772 33.0169 90.8627 32.8599 91.2338C32.6172 91.8191 32.5601 92.333 32.7171 92.7469C32.8741 93.1609 33.2595 93.5035 33.9019 93.7747C34.1303 93.8746 34.3016 93.9175 34.4443 93.9032C34.5728 93.9032 34.687 93.8461 34.7869 93.7319C34.8868 93.6177 34.9868 93.4321 35.0867 93.1752L36.2001 90.5201L35.4721 90.2203C35.001 90.0205 34.5871 89.9348 34.2445 89.9777Z" fill="#292F36"/>
<path d="M22.3966 86.8373C22.5251 86.8801 22.6535 86.8516 22.7677 86.7802C22.8819 86.7088 23.039 86.5518 23.2245 86.3234L26.8074 81.7556C26.993 81.5272 27.1072 81.3416 27.15 81.2132C27.1928 81.0847 27.1786 80.9562 27.1072 80.842C27.0358 80.7278 26.8931 80.5708 26.679 80.3852L26.8217 80.1997C27.0929 80.4423 27.4641 80.7564 27.9637 81.1418C28.4918 81.5557 28.8915 81.8555 29.1627 82.0411L29.02 82.2266C28.7916 82.0554 28.606 81.9554 28.4776 81.9269C28.3491 81.8841 28.2206 81.8983 28.1064 81.984C27.9922 82.0553 27.8352 82.2124 27.6496 82.4408L24.0667 87.0086C23.8812 87.237 23.767 87.4226 23.7241 87.551C23.6813 87.6795 23.6956 87.808 23.767 87.9222C23.8383 88.0364 23.9811 88.1934 24.1952 88.379L24.0524 88.5645C23.8098 88.3504 23.4244 88.0364 22.8962 87.6081C22.3966 87.2227 21.9969 86.923 21.7114 86.7231L21.8542 86.5376C22.0968 86.6946 22.2681 86.7945 22.3966 86.8373Z" fill="#292F36"/>
<path d="M13.1754 76.6738C13.1183 76.0315 13.261 75.3891 13.5893 74.7753C13.9319 74.1472 14.4458 73.5905 15.1595 73.0623C15.859 72.5627 16.5584 72.2344 17.2864 72.106C18.0144 71.9775 18.6853 72.0203 19.3134 72.263C19.9415 72.5056 20.4697 72.9196 20.8836 73.5049C21.3261 74.1044 21.5688 74.7325 21.6259 75.3748C21.683 76.0172 21.5402 76.6595 21.2119 77.2733C20.8693 77.9014 20.3555 78.4581 19.6417 78.9863C18.9423 79.4859 18.2428 79.8142 17.5148 79.9427C16.8011 80.0711 16.1159 80.0283 15.4878 79.7857C14.8598 79.543 14.3316 79.129 13.9176 78.558C13.4751 77.9442 13.2325 77.3162 13.1754 76.6738ZM15.3165 79.2147C15.8162 79.3146 16.3871 79.2718 17.0152 79.0719C17.6433 78.8721 18.2714 78.5438 18.928 78.0584C19.5846 77.5874 20.0985 77.0735 20.4554 76.5311C20.8265 75.9886 21.0264 75.4462 21.0549 74.9323C21.0977 74.4184 20.9693 73.9616 20.698 73.5762C20.3983 73.1765 20.0129 72.9196 19.499 72.8197C18.9994 72.7198 18.4284 72.7626 17.8003 72.9624C17.1722 73.1623 16.5442 73.4906 15.8875 73.9616C15.2309 74.4327 14.717 74.9466 14.3602 75.5033C13.989 76.0457 13.7892 76.5739 13.7463 77.102C13.7035 77.6159 13.832 78.0727 14.1032 78.4581C14.403 78.8578 14.8027 79.1148 15.3165 79.2147Z" fill="#292F36"/>
<path d="M14.2745 59.4871C14.4458 59.6156 14.5742 59.8297 14.6599 60.1152C14.7598 60.415 14.7455 60.7005 14.6313 60.9431C14.5171 61.2001 14.2459 61.4427 13.832 61.6854L12.7899 62.2706C12.4331 62.4848 12.1618 62.6561 11.9763 62.7988C11.7907 62.9416 11.6622 63.1129 11.5909 63.3127C11.5195 63.5125 11.5195 63.7409 11.6051 64.0264L11.9335 65.097L14.5029 64.2976C14.7884 64.212 14.9739 64.1263 15.0881 64.0407C15.2023 63.955 15.2594 63.8409 15.2737 63.7124C15.288 63.5839 15.2451 63.3698 15.1738 63.0986L15.4022 63.0272C15.4878 63.3698 15.6163 63.8551 15.8161 64.4547C16.016 65.097 16.173 65.5681 16.2872 65.8678L16.0588 65.9392C15.9589 65.668 15.8732 65.4824 15.7876 65.3825C15.7019 65.2826 15.5877 65.2112 15.445 65.2112C15.3022 65.2112 15.0881 65.2398 14.8169 65.3397L9.27839 67.0526C8.9929 67.1383 8.80733 67.2239 8.69313 67.3096C8.57894 67.3952 8.52184 67.5094 8.50756 67.6379C8.49329 67.7806 8.53611 67.9805 8.60748 68.2517L8.37909 68.3231C8.30772 68.009 8.17925 67.5522 7.99368 66.9527C7.90803 66.6672 7.79384 66.3389 7.67964 65.9963C7.56544 65.6537 7.4798 65.411 7.43697 65.2826C7.2514 64.6973 7.19431 64.1834 7.23713 63.7267C7.27995 63.2699 7.4227 62.8987 7.65109 62.599C7.87948 62.2992 8.17925 62.0994 8.55039 61.9852C8.83588 61.8995 9.14992 61.871 9.49251 61.9138C9.83509 61.9566 10.1634 62.0994 10.506 62.3563C10.8486 62.6132 11.1341 62.9844 11.3767 63.484L11.3625 63.3412C11.3196 62.9844 11.3054 62.6989 11.3625 62.4562C11.4196 62.2136 11.5195 62.0137 11.6622 61.8424C11.8193 61.6711 12.0476 61.4856 12.3474 61.3143L13.4037 60.6862C13.6178 60.572 13.7891 60.4578 13.8891 60.3721C13.989 60.2865 14.0746 60.2008 14.1175 60.1152C14.1603 60.0295 14.1603 59.9296 14.1317 59.8297C14.0889 59.7012 14.0318 59.6156 13.9462 59.5585C13.8605 59.5014 13.7178 59.43 13.5179 59.3586L13.5893 59.1445C13.8748 59.2445 14.1175 59.3586 14.2745 59.4871ZM10.8629 63.3127C10.6202 63.0843 10.3347 62.9558 10.0349 62.9273C9.73517 62.8987 9.39258 62.9416 9.00717 63.07C8.39337 63.2556 7.9794 63.5554 7.75101 63.9408C7.52262 64.3262 7.52262 64.8543 7.72246 65.4967C7.79384 65.7251 7.87948 65.8964 7.96513 65.9963C8.05078 66.0962 8.17925 66.1533 8.32199 66.1533C8.46474 66.1533 8.67886 66.1105 8.9358 66.0391L11.6765 65.1827L11.4481 64.4261C11.3054 63.9122 11.1055 63.5411 10.8629 63.3127Z" fill="#292F36"/>
<path d="M13.1753 45.9408C13.7177 45.6981 14.046 45.2413 14.1888 44.5562C14.2316 44.2992 14.2316 44.0423 14.1602 43.7996C14.0889 43.5569 13.9604 43.3428 13.7606 43.1573C13.5607 42.9717 13.2895 42.8432 12.9326 42.7861C12.6329 42.729 12.3617 42.7576 12.1047 42.8575C11.8478 42.9574 11.5908 43.1144 11.3482 43.3286C11.1055 43.5427 10.82 43.8282 10.506 44.185C10.1491 44.5847 9.83506 44.913 9.56384 45.1414C9.29263 45.3841 8.99286 45.5554 8.66455 45.6839C8.33624 45.8123 7.9651 45.8266 7.55114 45.7552C7.1229 45.6696 6.76604 45.5126 6.50909 45.2556C6.25215 44.9987 6.06658 44.6989 5.98094 44.342C5.89529 43.9852 5.89529 43.614 5.96666 43.2144C6.00949 42.9717 6.06658 42.7861 6.13796 42.6148C6.20933 42.4435 6.2807 42.3151 6.36635 42.2151C6.452 42.1152 6.53764 42.001 6.65184 41.8868C6.79458 41.7298 6.86596 41.6156 6.89451 41.53C6.90878 41.4586 6.88023 41.4015 6.80886 41.3444C6.73749 41.2873 6.60902 41.2445 6.43772 41.1874L6.48055 40.9304C6.92306 41.0446 7.69388 41.2159 8.82157 41.43L8.77875 41.687C8.37906 41.6442 8.00792 41.6584 7.63678 41.7441C7.27992 41.8155 6.96588 41.9725 6.70894 42.2151C6.452 42.4435 6.2807 42.7718 6.20933 43.1715C6.15223 43.4428 6.16651 43.6854 6.23788 43.9281C6.30925 44.1708 6.43772 44.3563 6.60902 44.5133C6.79459 44.6704 7.0087 44.7703 7.26564 44.8274C7.67961 44.8988 8.03647 44.8417 8.33624 44.6418C8.636 44.442 8.92149 44.185 9.19271 43.8853C9.46392 43.5855 9.63522 43.3857 9.73514 43.2857C10.1348 42.8575 10.4631 42.5292 10.7344 42.2865C11.0056 42.0438 11.3053 41.8726 11.6337 41.7584C11.962 41.6442 12.3188 41.6299 12.7042 41.7013C13.1753 41.7869 13.5607 41.9725 13.8462 42.2437C14.1317 42.5292 14.3173 42.8575 14.4172 43.2572C14.5171 43.6569 14.5171 44.0851 14.4315 44.5419C14.3601 44.913 14.2744 45.1985 14.146 45.4269C14.0318 45.6553 13.8748 45.8551 13.7035 46.0407C13.5607 46.1977 13.4893 46.3119 13.4608 46.3976C13.4465 46.469 13.4751 46.5261 13.5464 46.5832C13.6178 46.6402 13.7463 46.6973 13.9176 46.7402L13.8748 46.9971C13.4608 46.8829 12.5472 46.6973 11.134 46.4404L11.1769 46.1835C11.9762 46.2548 12.6329 46.1835 13.1753 45.9408Z" fill="#292F36"/>
<path d="M10.3489 33.9071C9.94918 33.693 9.4924 33.4932 8.97852 33.2933C9.29256 32.7366 9.82071 31.766 10.5344 30.3813C11.2482 29.011 11.7478 28.0403 12.019 27.4551C12.4901 27.7548 12.9183 28.0118 13.3037 28.2116C13.6463 28.3972 13.9461 28.5256 14.1744 28.6256L14.046 28.8682C13.475 28.6398 13.0468 28.4971 12.747 28.4543C12.4472 28.3972 12.176 28.4543 11.9476 28.597C11.7192 28.7398 11.4908 29.0253 11.2767 29.4535L10.9912 30.0245L16.8866 33.0935C17.1721 33.2505 17.4005 33.3219 17.5575 33.3362C17.7145 33.3504 17.8573 33.3076 17.9857 33.1934C18.1142 33.0792 18.257 32.8651 18.4283 32.5653L18.6424 32.6795C18.4283 33.0364 18.157 33.536 17.8145 34.1926C17.4576 34.8778 17.2006 35.406 17.0436 35.7343L16.8295 35.6201C16.9723 35.306 17.0722 35.0634 17.0865 34.9064C17.115 34.7351 17.0722 34.5923 16.958 34.4639C16.8438 34.3354 16.6582 34.2069 16.3727 34.0499L10.4773 30.9666L10.1776 31.5233C9.94918 31.9515 9.84925 32.2941 9.86353 32.5653C9.8778 32.8366 9.99201 33.0792 10.2061 33.2933C10.4202 33.5075 10.7771 33.7929 11.291 34.1213L11.1625 34.3639C10.977 34.2497 10.6915 34.0927 10.3489 33.9071Z" fill="#292F36"/>
<path d="M20.4268 17.5059C20.6694 17.2632 20.8693 17.0348 21.012 16.8635L21.1833 17.0348C21.0977 17.1633 21.0549 17.3488 21.0691 17.563C21.0834 17.7771 21.1405 18.0768 21.2547 18.4337L22.5537 22.3021L24.0668 23.8009C24.2809 24.0008 24.4379 24.1435 24.5664 24.2006C24.6949 24.2577 24.8233 24.2577 24.9518 24.2006C25.0803 24.1435 25.2373 24.015 25.4514 23.8295L25.6227 24.0008C25.3515 24.2434 24.9946 24.586 24.5521 25.0285C24.0811 25.4996 23.7385 25.8707 23.5244 26.1134L23.3531 25.9421C23.5386 25.728 23.6671 25.571 23.7242 25.4425C23.7813 25.314 23.7813 25.1856 23.7099 25.0571C23.6528 24.9286 23.5101 24.7573 23.3102 24.5575L22.0541 23.3156L17.2864 21.9167C17.0009 21.831 16.7868 21.8025 16.644 21.8168C16.5013 21.831 16.4014 21.8739 16.33 21.9452L16.1587 21.7739C16.3871 21.5741 16.644 21.3457 16.901 21.0745C17.4291 20.5321 17.8145 20.1466 18.0287 19.8897L18.2 20.061C17.8145 20.4464 17.7289 20.7462 17.943 20.9603C18.0287 21.0459 18.1429 21.103 18.3141 21.1601L22.3253 22.402L21.269 19.2473C21.112 18.7906 20.9549 18.4765 20.7836 18.3195C20.6266 18.1625 20.4553 18.1197 20.2698 18.1768C20.0842 18.2339 19.8701 18.3766 19.6131 18.6193L19.4418 18.448C19.7844 18.1339 20.0985 17.8199 20.4268 17.5059Z" fill="#292F36"/>
<path d="M29.0628 11.7531C28.9771 11.853 28.9343 11.9815 28.9628 12.1242C28.9914 12.267 29.0628 12.4668 29.2055 12.7238L31.9605 17.8341C32.1032 18.091 32.2174 18.2623 32.3316 18.3622C32.4316 18.4621 32.56 18.4907 32.6885 18.4764C32.817 18.4621 33.0168 18.3765 33.2595 18.248L34.016 17.8341C34.4443 17.6057 34.744 17.363 34.9011 17.1203C35.0581 16.8777 35.1152 16.6064 35.0723 16.2781C35.0295 15.9498 34.9011 15.5359 34.6727 14.9934L34.9153 14.865C35.0152 15.0933 35.158 15.3788 35.3436 15.7214C35.5577 16.1068 35.8146 16.5351 36.1287 17.0061C35.6576 17.2345 34.8582 17.6485 33.7591 18.248C32.4458 18.9617 31.4466 19.5042 30.79 19.8896L30.6758 19.6897C30.9185 19.547 31.0898 19.4185 31.1754 19.3186C31.261 19.2187 31.3039 19.0902 31.2753 18.9475C31.2468 18.8047 31.1754 18.6049 31.0327 18.3479L28.2491 13.2377C28.1064 12.9807 27.9922 12.8094 27.878 12.7095C27.7781 12.6096 27.6496 12.581 27.5211 12.5953C27.3784 12.6096 27.1928 12.681 26.9359 12.8094L26.8359 12.5953C27.1357 12.4668 27.5782 12.2384 28.1635 11.9101C28.7202 11.6104 29.1484 11.3677 29.4482 11.1821L29.5624 11.382C29.3197 11.5247 29.1627 11.6532 29.0628 11.7531Z" fill="#292F36"/>
<path d="M46.4491 12.6667C46.5348 13.095 46.6633 13.5803 46.8203 14.1227C46.2921 14.2084 45.4214 14.3654 44.1938 14.6081C42.7235 14.8936 41.6243 15.122 40.8678 15.2933L40.825 15.0649C41.0962 14.9935 41.296 14.9364 41.4102 14.8507C41.5244 14.7794 41.5958 14.6652 41.6101 14.5367C41.6243 14.394 41.6101 14.1798 41.553 13.8944L40.4396 8.1988C40.3825 7.91331 40.3254 7.71347 40.2397 7.585C40.1541 7.45653 40.0684 7.38515 39.9257 7.37088C39.7972 7.34233 39.5831 7.3566 39.3119 7.39943L39.269 7.17103C40.0256 7.04256 41.139 6.84272 42.595 6.55723C43.7227 6.32884 44.5221 6.17182 44.9789 6.05762C45.0217 6.5715 45.0931 7.02829 45.1644 7.42798C45.2215 7.72774 45.2786 7.95613 45.3357 8.12743L45.0788 8.18453C44.9218 7.69919 44.779 7.34233 44.6505 7.11394C44.5221 6.88554 44.3365 6.7428 44.1224 6.67143C43.894 6.60005 43.5942 6.60005 43.1803 6.6857L42.2239 6.87127C41.9527 6.92837 41.7528 6.98547 41.6386 7.05684C41.5244 7.12821 41.453 7.22813 41.4245 7.37088C41.4102 7.51362 41.4245 7.72774 41.4816 8.01323L42.0098 10.7254L42.7663 10.5684C43.1517 10.497 43.3801 10.3257 43.4658 10.0688C43.5514 9.81182 43.58 9.56916 43.5657 9.32649C43.5514 9.08382 43.5371 8.9268 43.5371 8.85543L43.7941 8.79833C43.8369 9.18374 43.894 9.54061 43.9654 9.8832L44.0796 10.4256C44.1509 10.8111 44.2794 11.3535 44.465 12.0387L44.208 12.0958C44.1938 12.0387 44.1367 11.8674 44.0367 11.5533C43.9368 11.2393 43.7941 11.0252 43.58 10.8967C43.3658 10.7682 43.1232 10.7397 42.8091 10.7968L42.0526 10.9395L42.595 13.6945C42.6521 13.98 42.7092 14.1798 42.7806 14.3083C42.8519 14.4225 42.9519 14.4939 43.0946 14.5224C43.2231 14.5367 43.4372 14.5224 43.7084 14.4653L44.5506 14.294C45.0217 14.1941 45.3785 14.0656 45.6069 13.8944C45.8353 13.7231 45.9638 13.4804 46.0209 13.1806C46.078 12.8809 46.078 12.4526 46.0352 11.8959L46.2921 11.8388C46.3349 12.0529 46.3778 12.3242 46.4491 12.6667Z" fill="#292F36"/>
<path d="M36.8283 67.1811C36.1717 66.2961 35.6007 65.3254 35.1011 64.2548C34.6015 63.1842 34.2018 62.0994 33.9021 60.986C33.2454 56.0898 33.2312 51.3364 33.845 46.7257C34.4588 42.115 35.458 37.5757 36.8283 33.0935C37.0567 32.5939 37.5563 32.3512 38.3272 32.3512C39.098 32.3512 39.8545 32.5225 40.6254 32.8651C41.3962 33.2077 42.0243 33.6645 42.5239 34.2355C43.0235 34.8065 43.1377 35.406 42.8665 36.0198C42.4382 36.9334 42.0243 38.1753 41.6103 39.7169C41.1964 41.2728 40.7824 42.9858 40.4113 44.8557C40.0258 46.7257 39.6975 48.6956 39.412 50.7369C39.1265 52.7781 38.9124 54.748 38.784 56.618C38.6555 58.4879 38.6269 60.1866 38.6983 61.6997C38.7697 63.2128 38.9981 64.4119 39.3835 65.2826C41.1821 62.8702 42.8237 60.3722 44.3225 57.7885C45.8213 55.2048 47.2202 52.5925 48.5335 49.9232C49.8467 47.2681 51.1029 44.5845 52.2877 41.8581C53.4725 39.1459 54.643 36.4623 55.7849 33.8215C56.3559 32.4797 56.9269 31.0665 57.4836 29.582C58.0403 28.0832 58.7683 26.8127 59.6962 25.7421C60.0816 25.3995 60.3813 25.2854 60.5812 25.3995C60.7953 25.5137 60.938 25.7279 61.0094 26.0562C61.0808 26.3845 61.1236 26.7271 61.1236 27.0839C61.1236 27.4408 61.1236 27.7263 61.1236 27.9119C60.8524 29.6676 60.624 31.4091 60.4384 33.1363C60.2529 34.8636 59.8389 36.5194 59.2394 38.1324C58.2402 40.659 57.2267 43.1571 56.1703 45.6551C55.114 48.1389 53.9863 50.5941 52.7873 53.0065C51.5882 55.4189 50.275 57.7599 48.8903 60.0296C47.4914 62.3135 45.9783 64.4832 44.3225 66.5388C43.0235 68.1803 41.7245 69.0511 40.4541 69.151C39.1265 69.2652 37.9418 68.5943 36.8283 67.1811Z" fill="#292F36" stroke="white" stroke-miterlimit="10"/>
<path d="M60.467 60.7004C59.6962 59.6298 58.9397 58.5449 58.1974 57.4315C57.4551 56.3181 57.084 55.1048 57.084 53.763C57.084 52.2784 57.5122 50.8652 58.3687 49.5377C59.2252 48.2245 60.2101 47.1539 61.3235 46.3545C61.7803 46.0547 62.2514 45.7978 62.7224 45.6122C63.1935 45.4266 63.7074 45.4409 64.2498 45.6693C64.4782 45.7835 64.7209 45.8692 64.9635 45.9263C65.2062 45.9834 65.4346 46.0547 65.6202 46.1261C65.8057 46.1975 66.0198 46.3117 66.2482 46.4687C66.4766 46.6257 66.5908 46.8256 66.5908 47.0968C66.5908 48.1674 66.6194 49.0381 66.6765 49.709C66.7336 50.3799 66.8192 50.9509 66.9334 51.4362C67.0476 51.9216 67.1618 52.3355 67.276 52.6924C67.3902 53.0635 67.5044 53.4489 67.6186 53.8629C67.69 54.2483 67.6757 54.5766 67.5615 54.8336C67.4473 55.1048 67.1618 55.1333 66.705 54.9478C65.8628 54.648 65.2347 54.0342 64.835 53.1063C64.4354 52.1785 64.1356 51.3506 63.95 50.5798C63.9072 50.4227 63.8216 50.1658 63.6645 49.7804C63.5075 49.395 63.4219 49.1238 63.3791 48.981C63.0793 48.9096 62.7081 49.0096 62.2942 49.295C61.8802 49.5805 61.4948 49.9802 61.1808 50.4656C60.8525 50.9652 60.6383 51.5361 60.5527 52.1928C60.4528 52.8494 60.5812 53.4918 60.9238 54.1484C61.0808 54.3768 61.295 54.6623 61.5805 54.9763C61.8659 55.3046 62.1514 55.6329 62.4369 55.9755C62.7224 56.3181 63.0079 56.6607 63.2934 56.9747C63.5789 57.2888 63.8216 57.56 64.0071 57.7456C64.2355 57.974 64.3925 58.1024 64.4639 58.1167C64.5353 58.131 64.7351 58.0882 65.0349 57.974C65.4203 57.7884 66.0056 57.5315 66.7907 57.2317C67.5758 56.9319 68.4037 56.6179 69.2602 56.3181C70.1166 56.0184 70.9446 55.7614 71.7297 55.5473C72.5148 55.3332 73.1143 55.2332 73.5425 55.2332C73.8137 55.2332 73.9993 55.3332 74.1135 55.5187C74.2277 55.6329 74.2134 55.79 74.0564 55.9755C73.8994 56.1611 73.6995 56.3609 73.4569 56.5465C73.2142 56.7321 72.943 56.9034 72.686 57.0604C72.4148 57.2174 72.2435 57.3031 72.1722 57.3459C71.5155 57.7313 70.7019 58.1595 69.7027 58.6449C68.7035 59.1159 67.847 59.587 67.119 60.0438C67.0476 60.1151 66.9049 60.2008 66.6907 60.2722C66.4766 60.3435 66.3196 60.4292 66.2054 60.5006C66.6622 61.5283 66.9905 62.4276 67.1761 63.1699C67.3616 63.9122 67.433 64.6259 67.3759 65.3253C67.3188 66.0105 67.1761 66.71 66.9477 67.4237C66.7193 68.1374 66.4052 68.9511 66.0341 69.8646C65.4917 70.7497 64.9492 71.5919 64.3925 72.3912C63.8358 73.1906 63.222 73.9186 62.5226 74.5752C61.8374 75.2319 61.0808 75.7458 60.2815 76.1169C59.4821 76.5023 58.5971 76.6879 57.6407 76.6879C57.0983 76.6879 56.5844 76.6165 56.0848 76.488C55.5852 76.3596 55.1712 76.0741 54.8286 75.6601C53.9436 74.7037 53.4582 73.6617 53.344 72.534C53.2299 71.4063 53.3298 70.2929 53.6295 69.1795C53.8579 68.4943 54.1434 67.8662 54.486 67.281C55.3282 65.825 56.2561 64.5973 57.2695 63.5839C58.2973 62.5846 59.3536 61.614 60.467 60.7004ZM62.4227 63.2841C61.9944 63.7123 61.4234 64.3119 60.6954 65.097C59.9674 65.8821 59.2965 66.7385 58.6542 67.6521C58.0261 68.5657 57.5122 69.4792 57.1125 70.3785C56.7128 71.2778 56.6129 72.0487 56.7985 72.7053C57.5693 72.3627 58.3544 71.7917 59.1538 71.0066C59.9532 70.2215 60.6669 69.365 61.2807 68.4229C61.8945 67.4808 62.3227 66.553 62.5654 65.6394C62.8081 64.7115 62.7652 63.9264 62.4227 63.2841Z" fill="#292F36" stroke="white" stroke-miterlimit="10"/>
<path d="M51.1599 83.9394C33.3025 83.9394 18.771 69.4079 18.771 51.5505C18.771 33.693 33.3025 19.1616 51.1599 19.1616C69.0174 19.1616 83.5488 33.693 83.5488 51.5505C83.5488 69.4079 69.0174 83.9394 51.1599 83.9394ZM51.1599 20.589C34.0876 20.589 20.1984 34.4781 20.1984 51.5505C20.1984 68.6228 34.0876 82.5119 51.1599 82.5119C68.2323 82.5119 82.1214 68.6228 82.1214 51.5505C82.1214 34.4781 68.2323 20.589 51.1599 20.589Z" fill="#292F36"/>
</g>
<defs>
<clipPath id="clip0_2_157">
<rect width="103" height="103" fill="white" transform="translate(0 0.390625)"/>
</clipPath>
</defs>
</svg>
