<svg width="145" height="46" viewBox="0 0 145 46" fill="none" xmlns="http://www.w3.org/2000/svg">
<g clip-path="url(#clip0_2_190)">
<path d="M20.2413 9.21949L21.3118 8.9911C21.5831 8.9911 21.8115 9.0482 21.9685 9.1624C22.1255 9.27659 22.2112 9.39079 22.2112 9.49071C22.2112 9.59063 22.1826 9.74765 22.1398 9.93322C22.097 10.1188 21.6973 12.0316 20.955 15.6431C20.2127 19.2545 19.6703 21.9524 19.3277 23.7225C20.9835 21.4671 22.9249 18.6978 25.1374 15.4004C27.35 12.103 28.649 9.91895 29.0201 8.83408C29.1343 8.49149 29.2913 8.23455 29.4769 8.04898C29.6625 7.86341 29.8338 7.74922 29.9765 7.72067C30.1192 7.69212 30.3476 7.66357 30.6474 7.66357C30.9472 7.66357 31.304 7.73494 31.718 7.86342C32.132 7.99189 32.3461 8.206 32.3461 8.52004C32.3461 9.09102 31.4896 10.7612 29.7909 13.5019C28.0923 16.2426 26.1367 19.1546 23.9384 22.2379C21.7401 25.3212 19.913 27.7622 18.4427 29.5607C18.1857 29.8748 17.8574 30.0461 17.4863 30.0461C17.1151 30.0461 16.7155 29.9747 16.3015 29.8462C15.8875 29.7178 15.6734 29.4894 15.6734 29.1468C15.6734 28.0762 16.6155 22.9088 18.4998 13.6732C16.8867 15.7573 14.9311 18.6693 12.6329 22.3949C10.2348 26.2491 8.87874 28.6472 8.5647 29.5607C8.39341 30.1175 8.19357 30.4458 7.96517 30.5314C7.80815 30.6028 7.63685 30.6313 7.46556 30.6313L6.30932 30.7598C6.08093 30.7598 5.88108 30.7027 5.68124 30.5742C5.49567 30.4458 5.39575 30.3173 5.39575 30.1746C5.39575 29.7891 5.93819 28.6186 7.00878 26.6773C8.07937 24.736 9.3498 22.6233 10.7915 20.3394C12.2333 18.0555 13.7321 15.8429 15.3023 13.6875C16.8725 11.532 18.0858 10.076 18.9423 9.34797C19.1136 9.19095 19.3134 9.11957 19.5418 9.11957L20.2413 9.21949Z" fill="#292F36"/>
<path d="M37.3993 18.8979C38.1416 18.8979 38.5127 19.1549 38.5127 19.6545C38.5127 19.9257 38.4556 20.1255 38.3272 20.254C38.1987 20.3825 37.9275 20.7964 37.5135 21.5244C37.0996 22.2382 36.6428 23.1517 36.1432 24.2794C35.6435 25.3928 35.3152 26.3492 35.1725 27.1343C35.144 27.2342 35.1297 27.3627 35.1297 27.5483C35.1297 28.0907 35.2724 28.3477 35.5722 28.3477C35.872 28.3477 36.2145 28.2049 36.6142 27.9337C37.0139 27.6482 37.3708 27.3627 37.6848 27.0344C37.9988 26.7204 38.2986 26.392 38.5984 26.0637C38.8981 25.7354 39.0695 25.5356 39.1266 25.4928C39.1837 25.4499 39.2693 25.4214 39.3835 25.4214C39.5691 25.4214 39.6833 25.5641 39.7261 25.8496C39.7689 26.1351 39.7832 26.4206 39.7832 26.7346C39.7832 27.0487 39.7546 27.2485 39.6975 27.3627C39.412 27.9194 38.7982 28.5903 37.8276 29.3754C36.8712 30.1605 35.9862 30.5459 35.2011 30.5459C34.416 30.5459 33.8307 30.3033 33.4738 29.8322C33.117 29.3611 32.9171 28.8187 32.9171 28.2477C32.9171 27.6625 33.0171 27.1629 33.2169 26.7204C32.4032 27.7767 31.4754 28.6617 30.4333 29.404C29.377 30.132 28.5348 30.5031 27.8639 30.5031C27.193 30.5031 26.6649 30.3033 26.2366 29.9036C25.6942 29.404 25.4373 28.7188 25.4373 27.8338C25.4373 26.9488 25.6371 26.0637 26.0368 25.1644C26.4365 24.2794 26.9504 23.4515 27.5927 22.7235C28.2351 21.9812 28.9488 21.3103 29.7196 20.7108C31.3326 19.4403 32.8315 18.8123 34.2018 18.8123C34.73 18.8123 35.1582 18.8979 35.4865 19.0692C35.8149 19.2405 36.029 19.4689 36.1146 19.7258C36.343 19.369 36.5429 19.1549 36.7142 19.0549C36.8426 18.9407 37.0853 18.8979 37.3993 18.8979ZM35.458 20.5252C33.7879 20.5252 32.0606 21.4531 30.2763 23.3087C29.6482 23.9796 29.063 24.7648 28.5206 25.6926C27.9781 26.6204 27.7212 27.2485 27.7212 27.5911C27.7212 27.9337 27.8211 28.105 28.021 28.105C28.2922 28.105 29.0487 27.5626 30.3049 26.492C31.561 25.4214 32.389 24.622 32.7887 24.1081C33.2454 23.5371 34.1305 22.3381 35.458 20.5252Z" fill="#292F36"/>
<path d="M48.505 11.1609L49.1045 11.3036C49.1901 11.3036 49.2758 11.3464 49.3329 11.4321C49.4043 11.5177 49.4328 11.6034 49.4328 11.6747C49.4328 11.7461 49.3329 11.9602 49.1188 12.3028C48.9047 12.6454 48.6763 13.0308 48.3908 13.4591C48.1053 13.8873 47.9625 14.13 47.9483 14.1728C48.7048 14.1157 49.2472 14.0871 49.5613 14.0871C49.8753 14.0871 50.0894 14.1157 50.2179 14.1585C50.3321 14.2013 50.4748 14.3298 50.6176 14.5297C50.7746 14.7295 50.9031 14.8865 51.0316 14.9864C51.16 15.0864 51.2171 15.2434 51.2171 15.4432C51.2171 15.6431 51.0887 15.8286 50.846 15.9571C50.6033 16.0999 50.3321 16.1855 50.0466 16.2141C47.777 16.4424 46.5351 16.5566 46.3067 16.5709C45.5216 17.7843 44.4082 19.6685 42.995 22.2236C41.5818 24.7788 40.8253 26.3918 40.7396 27.0341C40.6968 27.3339 40.6825 27.5623 40.6825 27.7479C40.6825 28.1333 40.8824 28.3189 41.2821 28.3189C41.6817 28.3189 42.1242 28.1618 42.6096 27.8621C43.0949 27.548 43.5517 27.2197 43.9514 26.8629C45.0505 25.8922 45.6358 25.3926 45.7072 25.3926C45.9641 25.3926 46.0926 25.8351 46.0926 26.7058C46.0926 27.1769 45.8785 27.6051 45.4359 27.9905C44.451 28.8327 43.6231 29.4751 42.9522 29.9033C42.2813 30.3316 41.6104 30.5457 40.9252 30.5457C40.7824 30.5457 40.6397 30.5314 40.5112 30.5029C39.7261 30.3601 39.1551 30.0746 38.7983 29.6464C38.4271 29.2182 38.2559 28.6472 38.2559 27.9334C38.2559 27.2197 38.47 26.3347 38.8982 25.3069C39.3264 24.2792 39.8546 23.18 40.497 22.0238C41.5533 20.1253 42.6096 18.3552 43.6516 16.6994L43.0949 16.7708C41.9672 16.8992 41.3106 16.9563 41.125 16.9563H40.9966C40.7111 16.9563 40.4399 16.8992 40.1829 16.785C39.926 16.6708 39.7832 16.5281 39.7832 16.3711C39.7832 16.1998 39.8546 16.0428 39.9974 15.8857C40.1401 15.7287 40.2257 15.6002 40.2543 15.5146C40.3257 15.3005 40.5826 15.0578 41.0251 14.8009C41.4676 14.5439 41.7959 14.4012 42.0243 14.3869C42.2527 14.3726 42.4668 14.3584 42.681 14.3441C42.8951 14.3298 43.1235 14.3298 43.3804 14.3155C43.6374 14.3013 43.8372 14.3013 43.9799 14.287L45.2932 14.2299C46.1068 13.0023 46.6778 12.2029 46.9776 11.8603C47.2916 11.5035 47.4629 11.3179 47.5058 11.2893C47.5486 11.2608 47.6485 11.2322 47.8055 11.2322L48.505 11.1609Z" fill="#292F36"/>
<path d="M57.2836 25.4213C57.4692 25.4213 57.5834 25.5641 57.6262 25.8496C57.669 26.1351 57.6833 26.4205 57.6833 26.7346C57.6833 27.0486 57.6547 27.2485 57.5976 27.3627C57.3121 27.9051 56.6984 28.576 55.742 29.3611C54.7856 30.1462 53.872 30.5459 53.0155 30.5459C52.4874 30.5459 52.002 30.3889 51.5452 30.0748C51.1027 29.7608 50.8743 29.2041 50.8743 28.419C50.8743 27.6339 51.0885 26.8488 51.5024 26.0922C49.0758 29.1327 47.1915 30.6458 45.8069 30.6458C45.2644 30.6458 44.8219 30.446 44.4794 30.0606C44.1368 29.6751 43.9797 29.2755 43.9797 28.8472C43.9797 28.4333 44.0368 28.005 44.151 27.5625C44.2652 27.12 44.3937 26.7203 44.5222 26.3635C44.6506 26.0066 44.8505 25.5784 45.1074 25.0645C45.3644 24.5506 45.5642 24.1794 45.6784 23.9368C45.7926 23.6941 46.0067 23.3515 46.2922 22.8805C46.5777 22.4094 46.9346 21.767 47.3913 20.9677C47.8481 20.1683 48.2193 19.5688 48.519 19.1834C48.8188 18.7979 49.1043 18.5981 49.3898 18.5981C49.6753 18.5981 49.9179 18.7123 50.1321 18.9407C50.3462 19.1691 50.4604 19.3689 50.4604 19.5117C50.4604 19.6544 50.1321 20.311 49.4754 21.4816C47.5484 24.9788 46.5777 27.0058 46.5777 27.5911C46.5777 27.7338 46.6348 27.8052 46.7347 27.8052C47.2058 27.8052 48.3763 26.7917 50.232 24.7647C52.0877 22.7377 53.1725 21.4387 53.4723 20.8678C53.7721 20.2968 54.0433 19.8114 54.3288 19.426C54.6 19.0406 54.8141 18.7979 54.9569 18.7123C55.3708 18.4411 55.9132 18.2983 56.5842 18.2698C56.6983 18.2698 56.7697 18.2698 56.8268 18.2841C56.8839 18.2983 56.9553 18.384 57.0267 18.5267C57.098 18.6695 57.1409 18.7979 57.1409 18.8979C57.0552 19.1691 56.6698 19.8971 55.9703 21.0819C55.2852 22.2667 54.8998 22.9376 54.8284 23.0803C53.6722 25.4642 53.1012 27.0201 53.1012 27.7338C53.1012 28.1478 53.2582 28.3476 53.5722 28.3476C54.1432 28.2762 54.8284 27.8195 55.6278 26.9915C55.9275 26.6918 56.213 26.3777 56.4985 26.0637C56.784 25.7496 56.9696 25.5641 57.0267 25.5213C57.098 25.4499 57.1837 25.4213 57.2836 25.4213Z" fill="#292F36"/>
<path d="M61.5232 22.0381C63.8214 19.4258 65.7913 18.1126 67.4044 18.1126C67.804 18.1126 68.1324 18.2268 68.3893 18.4694C68.6462 18.7121 68.7747 19.0119 68.7747 19.3973C68.7747 19.7827 68.5035 20.4108 67.9611 21.3101C67.4186 22.1951 66.919 22.9516 66.4622 23.5655C66.2196 23.8795 65.9483 24.0365 65.6343 24.0365C65.3345 24.0365 65.0919 23.9223 64.9206 23.6939C64.7493 23.4655 64.6637 23.2086 64.6637 22.9088C64.6637 22.2379 65.0205 21.4671 65.7485 20.6249L65.72 20.5964C65.3916 20.6249 64.6065 21.2673 63.3218 22.4949C62.0514 23.7367 60.9665 24.8502 60.0672 25.8208C59.1822 26.8058 58.2115 27.9906 57.1552 29.4037C56.8555 29.8177 56.5985 30.0318 56.3844 30.0318C56.1703 30.0318 55.8991 29.9604 55.5565 29.832C55.2139 29.7035 54.9998 29.6036 54.9284 29.5465C54.857 29.4894 54.8142 29.3895 54.8142 29.2467C54.8142 29.1182 54.857 28.947 54.9284 28.7757C54.9998 28.5901 55.1568 28.3331 55.3566 28.0048C55.5565 27.6765 55.8848 27.1341 56.313 26.3918C56.7413 25.6495 57.3979 24.5219 58.2972 23.023C59.1965 21.5242 59.7247 20.6106 59.9102 20.2966C60.2814 19.6542 60.5811 19.1832 60.8238 18.8977C61.2663 18.341 62.0086 18.0698 63.0506 18.0698C63.279 18.0698 63.4075 18.2125 63.4075 18.5123C63.4075 18.9691 62.9792 19.8398 62.1371 21.096L61.5232 22.0381Z" fill="#292F36"/>
<path d="M77.2681 19.0691C77.2681 19.7115 77.0112 20.2825 76.483 20.7678C75.9549 21.2531 75.3696 21.4958 74.6987 21.4958C74.4846 21.4958 74.3419 21.4387 74.2705 21.3388C74.1991 21.2389 74.1705 21.0961 74.1705 20.9391C74.1705 20.7821 74.1848 20.6108 74.2277 20.4537C73.8708 20.5679 73.4854 20.7535 73.0571 20.9962C72.6289 21.2388 72.1007 21.5957 71.4727 22.081C70.8446 22.5664 70.5306 22.909 70.5306 23.1516C70.5306 23.223 70.6447 23.2658 70.8731 23.2658C71.1015 23.2658 71.4584 23.1802 71.9295 23.0232C72.4005 22.8661 72.7431 22.7805 72.9287 22.7805C73.1142 22.7805 73.2427 22.7948 73.2998 22.809C73.4283 22.8804 73.5568 23.0232 73.7138 23.2516C73.8565 23.48 73.9279 23.6655 73.9279 23.794C73.9279 23.9225 73.7994 24.0938 73.5425 24.3079C73.2855 24.522 73 24.679 72.686 24.7932C72.3577 24.9074 72.1436 24.9931 72.0437 25.0501C69.9881 26.2064 68.9603 26.9915 68.9603 27.4197C68.9603 28.1763 69.6027 28.5617 70.9017 28.5617C71.7296 28.5617 72.5718 28.3047 73.3997 27.7766C74.1135 27.3341 74.7558 26.8773 75.3268 26.4062C75.8978 25.9494 76.2546 25.664 76.4117 25.5498C76.5687 25.4356 76.6829 25.3927 76.7543 25.3927C77.0112 25.3927 77.1397 25.6782 77.1397 26.2492C77.1397 26.8202 77.1111 27.1913 77.0397 27.3626C76.9684 27.5482 76.7828 27.7623 76.4545 28.0335C74.3704 29.7322 72.3862 30.5887 70.5306 30.5887C69.5313 30.5887 68.7462 30.4459 68.1467 30.1747C67.0476 29.6751 66.5051 28.9186 66.5051 27.8908C66.5051 26.549 67.433 25.5212 69.3029 24.836C68.9318 24.6647 68.6891 24.4649 68.5892 24.1937C68.475 23.9367 68.4322 23.5228 68.4322 22.9518C68.4322 22.3808 68.7034 21.7813 69.2316 21.1389C69.7597 20.4966 70.4163 19.9684 71.1872 19.5687C72.9001 18.6409 74.4418 18.1841 75.7836 18.1841C76.1119 18.1841 76.4259 18.2555 76.7685 18.4125C77.1111 18.5695 77.2681 18.7836 77.2681 19.0691Z" fill="#292F36"/>
<path d="M110.585 9.13413H110.77C110.828 9.13413 110.87 9.13413 110.885 9.1484C110.899 9.16267 110.913 9.16268 110.942 9.17695C110.97 9.17695 110.985 9.19122 111.013 9.21977C111.056 9.2626 111.127 9.30542 111.213 9.34824C111.327 9.43389 111.384 9.53381 111.384 9.64801C111.384 9.76221 111.27 10.0049 111.042 10.376C110.813 10.7471 110.228 11.6464 109.272 13.1024C107.088 16.4426 105.132 19.5545 103.405 22.4094C100.421 27.3769 98.9083 29.875 98.8798 29.9035C98.8512 29.9321 98.8369 29.9606 98.8226 29.9892C98.8084 30.0463 98.7798 30.0748 98.7084 30.0748L98.5086 30.032L98.1089 30.1319L97.8805 30.0891L97.6379 30.1319H97.5522L96.7386 30.2461C96.2532 30.2461 96.0106 30.0748 96.0106 29.7465C96.0106 29.6038 96.0534 29.4325 96.139 29.2326C96.4388 28.5189 97.9662 25.9352 100.707 21.453C98.9083 21.4958 97.124 21.5244 95.3682 21.5244L92.2278 21.5101C91.7139 22.338 91.0002 23.5085 90.1009 25.0359C88.1596 28.3619 87.1318 30.032 87.0033 30.0605C86.8749 30.0891 86.7749 30.1176 86.6893 30.1176C86.6036 30.1176 86.5323 30.0748 86.4752 29.9749C86.4038 29.8893 86.361 29.8321 86.3324 29.8321C86.3039 29.8321 86.261 29.8464 86.1754 29.8892C86.104 29.9321 85.9898 29.9463 85.8328 29.9463L85.4902 29.9321L85.3618 29.8464C85.3475 29.8464 85.3332 29.8607 85.3189 29.8892C85.3047 29.9178 85.2618 29.9321 85.2047 29.9321C84.7908 29.9321 84.5767 29.7608 84.5767 29.4039C84.5767 29.1755 84.6623 28.8615 84.8193 28.4761C84.9906 28.0907 85.2047 27.6767 85.476 27.2342C85.7472 26.7917 86.4323 25.7211 87.56 24.051C88.6734 22.3808 89.2302 21.5386 89.2302 21.5244C89.0446 21.5101 88.8305 21.5101 88.5878 21.4958C88.0882 21.4958 87.7456 21.4815 87.5315 21.4387C86.9748 21.3388 86.5894 20.882 86.3895 20.0684C86.2753 19.6687 86.2325 19.4117 86.2468 19.2833C86.2468 19.0263 86.361 18.8836 86.5894 18.8836L86.9748 18.9835C87.1746 18.9978 87.6314 19.0121 88.3737 19.0549C89.116 19.0977 89.6441 19.112 89.9724 19.112L90.8004 19.0834C92.0708 17.0993 93.5839 14.8439 95.3539 12.3316C94.0692 13.3879 92.6418 13.916 91.0716 13.916C90.3293 13.916 89.6869 13.7447 89.1588 13.3879C88.6163 13.031 88.3594 12.5742 88.3594 12.0318C88.3594 11.4894 88.5593 11.0611 88.9732 10.7328C89.3872 10.4188 89.7726 10.2618 90.1437 10.2618C90.5149 10.2618 90.7004 10.3189 90.7004 10.4331C90.7004 10.4759 90.6433 10.5187 90.5434 10.5615C90.4435 10.6186 90.3864 10.6615 90.3864 10.7043C90.3864 10.8613 90.5577 11.004 90.9003 11.1182C91.2429 11.2324 91.6283 11.3038 92.0565 11.3038C92.4847 11.3038 92.9986 11.1753 93.6267 10.9327C94.2548 10.69 94.8971 10.3617 95.568 9.97632C96.5102 9.43389 97.2524 8.9771 97.7949 8.62024C98.1089 8.46322 98.3944 8.39185 98.6799 8.39185C98.9654 8.39185 99.151 8.4204 99.2794 8.49177C99.4079 8.54887 99.4935 8.62024 99.5506 8.67734C99.6077 8.73444 99.6791 8.82009 99.7362 8.92001C99.8076 9.01993 99.8647 9.10558 99.9361 9.1484C99.9932 9.2055 100.036 9.2626 100.036 9.33397C100.036 9.40534 99.9932 9.50526 99.9218 9.66228C99.8504 9.80503 99.4793 10.4045 98.8084 11.4466C98.1375 12.4886 97.2667 13.8161 96.2104 15.4291C95.1541 17.0422 94.3833 18.227 93.8979 18.9978C96.5102 18.9978 99.3223 18.955 102.348 18.855C106.031 13.0453 107.973 10.0049 108.172 9.71938C108.372 9.43389 108.558 9.24832 108.729 9.16267C108.9 9.07703 109.1 9.0342 109.343 9.0342L110.585 9.13413Z" fill="#292F36"/>
<path d="M115.353 18.8692C115.652 18.8692 115.952 18.9977 116.252 19.2689C116.566 19.5401 116.709 19.9398 116.709 20.4822C116.709 21.0246 116.523 21.7241 116.138 22.5948C115.752 23.4513 115.238 24.3363 114.567 25.2356C113.911 26.1207 113.169 26.9629 112.383 27.748C111.584 28.5331 110.728 29.1754 109.814 29.675C108.886 30.1746 108.058 30.4316 107.302 30.4316C106.545 30.4316 105.946 30.1889 105.489 29.7178C105.032 29.2468 104.804 28.5901 104.804 27.748C104.804 26.9058 105.018 25.9636 105.432 24.9501C105.846 23.9224 106.374 23.0231 107.031 22.238C107.687 21.4529 108.387 20.7534 109.157 20.1253C110.742 18.8406 112.141 18.2126 113.34 18.2126C113.882 18.2126 114.282 18.341 114.553 18.6123C114.653 18.6979 114.696 18.7835 114.696 18.8406V18.9263C114.853 18.8692 115.067 18.8692 115.353 18.8692ZM113.882 20.8105H113.782C113.44 20.8105 113.268 20.5679 113.268 20.0683C112.555 20.2966 111.813 20.7106 111.027 21.2959C110.242 21.8811 109.543 22.5806 108.929 23.3799C107.673 24.9787 107.045 26.3348 107.031 27.4339C107.031 27.9763 107.23 28.2476 107.63 28.2476C108.03 28.2476 108.629 27.9763 109.414 27.4625C110.199 26.9486 110.985 26.192 111.77 25.2071C112.541 24.2364 113.126 23.3799 113.511 22.6662C113.897 21.9525 114.096 21.4672 114.096 21.1959C114.082 20.939 114.011 20.8105 113.882 20.8105Z" fill="#292F36"/>
<path d="M116.395 30.1031L115.681 30.0746H115.424C115.324 30.046 115.224 29.9889 115.11 29.9033C114.996 29.8176 114.91 29.7463 114.853 29.7177C114.796 29.6892 114.767 29.6035 114.767 29.5036C114.767 29.4037 114.81 29.2181 114.882 28.9754C116.78 24.793 118.621 21.4385 120.406 18.9404C120.606 18.6692 120.92 18.4551 121.348 18.3123C121.776 18.1696 122.204 18.0982 122.618 18.0982C122.861 18.0982 122.989 18.2838 122.989 18.6692C122.989 18.7834 122.947 18.9262 122.875 19.0975C122.804 19.283 122.604 19.5685 122.29 19.9825C121.976 20.3964 121.605 20.8675 121.177 21.3814C120.748 21.8953 120.506 22.2093 120.449 22.2949C121.79 20.9103 122.989 19.8826 124.074 19.1974C125.159 18.5265 125.93 18.1839 126.415 18.1839C126.901 18.1839 127.272 18.3266 127.529 18.5978C127.786 18.8691 127.914 19.1688 127.914 19.4829C127.914 19.7969 127.886 20.0681 127.843 20.268C127.8 20.4821 127.714 20.6962 127.6 20.9246C127.486 21.153 127.386 21.3528 127.3 21.5098C127.215 21.6669 127.072 21.881 126.886 22.1379C126.687 22.3949 126.558 22.5804 126.487 22.6804C126.415 22.7803 126.258 22.9658 126.03 23.2371C125.802 23.5083 125.673 23.6653 125.659 23.6938C125.93 23.4226 126.315 23.0229 126.801 22.4805C127.286 21.9381 127.7 21.4956 128.043 21.1387C128.385 20.7818 128.799 20.3679 129.313 19.9111C129.827 19.4543 130.298 19.0832 130.726 18.812C131.783 18.1553 132.853 17.8127 133.938 17.8127C134.309 17.8127 134.623 17.9269 134.88 18.1696C135.137 18.4123 135.266 18.6835 135.266 19.0118C135.266 19.3401 134.866 20.1252 134.081 21.3528C133.296 22.5804 132.496 23.8223 131.711 25.0642C130.926 26.3061 130.526 27.0912 130.526 27.4195C130.526 27.862 130.612 28.1332 130.769 28.2189C130.94 28.3045 131.14 28.3331 131.369 28.3188C131.597 28.3045 131.94 28.1475 132.354 27.862C132.782 27.5765 133.153 27.291 133.481 26.977C134.024 26.4917 134.509 26.0206 134.98 25.5638C135.08 25.4782 135.18 25.4353 135.308 25.4353C135.494 25.4353 135.608 25.5781 135.651 25.8636C135.694 26.1491 135.708 26.4346 135.708 26.7486C135.708 27.0626 135.68 27.2625 135.622 27.3767C135.337 27.9191 134.709 28.59 133.752 29.3894C132.782 30.1745 131.854 30.5742 130.969 30.5742C130.855 30.5742 130.783 30.5742 130.741 30.5599C129.741 30.46 129.042 30.1888 128.656 29.732C128.271 29.2752 128.085 28.7328 128.085 28.119C128.085 27.5052 128.3 26.7343 128.728 25.8493C129.156 24.9643 129.613 24.1506 130.127 23.4369C130.641 22.7232 131.097 22.0666 131.526 21.4813C131.954 20.896 132.168 20.582 132.168 20.5392C132.168 20.4964 132.125 20.4678 132.054 20.4678C131.754 20.4678 131.083 20.9531 130.027 21.9381C128.242 23.6082 126.701 25.2212 125.402 26.7629C125.059 27.1768 124.246 28.2046 122.975 29.8747C122.832 30.0746 122.59 30.1745 122.276 30.1745C121.962 30.1745 121.633 30.1174 121.291 29.9889C120.948 29.8604 120.777 29.7034 120.777 29.5179C120.777 29.4179 121.548 28.0476 123.104 25.4068C124.66 22.766 125.43 21.3243 125.43 21.0959C125.43 20.8532 125.288 20.739 125.002 20.739C124.717 20.739 124.117 21.1673 123.218 22.0237C120.748 24.379 118.836 26.7343 117.48 29.0611C117.394 29.2038 117.223 29.4179 116.966 29.7034C116.709 29.9889 116.48 30.1031 116.395 30.1031Z" fill="#292F36"/>
<path d="M144.701 19.0691C144.701 19.7115 144.444 20.2825 143.916 20.7678C143.388 21.2531 142.802 21.4958 142.132 21.4958C141.917 21.4958 141.775 21.4387 141.703 21.3388C141.632 21.2389 141.603 21.0961 141.603 20.9391C141.603 20.7821 141.618 20.6108 141.66 20.4537C141.304 20.5679 140.918 20.7535 140.49 20.9962C140.062 21.2388 139.534 21.5957 138.906 22.081C138.277 22.5664 137.963 22.909 137.963 23.1516C137.963 23.223 138.078 23.2658 138.306 23.2658C138.534 23.2658 138.891 23.1802 139.362 23.0232C139.833 22.8661 140.176 22.7805 140.362 22.7805C140.547 22.7805 140.676 22.7948 140.733 22.809C140.861 22.8804 140.99 23.0232 141.147 23.2516C141.289 23.48 141.361 23.6655 141.361 23.794C141.361 23.9225 141.232 24.0938 140.975 24.3079C140.718 24.522 140.433 24.679 140.119 24.7932C139.791 24.9074 139.576 24.9931 139.476 25.0501C137.421 26.2064 136.393 26.9915 136.393 27.4197C136.393 28.1763 137.036 28.5617 138.335 28.5617C139.162 28.5617 140.005 28.3047 140.833 27.7766C141.546 27.3341 142.189 26.8773 142.76 26.4062C143.331 25.9494 143.687 25.664 143.845 25.5498C144.002 25.4356 144.116 25.3927 144.187 25.3927C144.444 25.3927 144.573 25.6782 144.573 26.2492C144.573 26.8202 144.544 27.1913 144.473 27.3626C144.401 27.5482 144.216 27.7623 143.887 28.0335C141.803 29.7322 139.819 30.5887 137.963 30.5887C136.964 30.5887 136.179 30.4459 135.58 30.1747C134.48 29.6751 133.938 28.9186 133.938 27.8908C133.938 26.549 134.866 25.5212 136.736 24.836C136.365 24.6647 136.122 24.4649 136.022 24.1937C135.908 23.9367 135.865 23.5228 135.865 22.9518C135.865 22.3808 136.136 21.7813 136.664 21.1389C137.193 20.4966 137.849 19.9684 138.62 19.5687C140.333 18.6409 141.875 18.1841 143.216 18.1841C143.545 18.1841 143.859 18.2555 144.201 18.4125C144.544 18.5695 144.701 18.7836 144.701 19.0691Z" fill="#292F36"/>
<path d="M0 34.0571C3.7542 35.6273 7.57977 36.8407 11.4767 37.7685C15.3451 38.7392 19.2849 39.4245 23.2247 39.8527C25.1946 40.1239 27.1787 40.1524 29.1343 40.3379C31.1185 40.3523 33.0884 40.5093 35.0583 40.3951L38.0131 40.3238C38.998 40.3095 39.983 40.181 40.9679 40.1238C41.9529 40.0382 42.9378 39.9953 43.9085 39.8669L46.8347 39.453C50.7602 39.0248 54.5715 38.1111 58.3686 37.012C62.2084 35.9556 65.8342 34.5568 69.674 33.1008C73.5995 31.6591 77.8533 30.7169 82.1642 31.1737C84.2911 31.4449 86.4323 32.1302 88.1738 33.3863C89.9296 34.6282 91.1857 36.3983 91.9851 38.2539C90.786 36.5981 89.2872 35.242 87.56 34.3998C85.8328 33.5576 83.9343 33.215 82.05 33.2721C78.2387 33.3292 74.4845 34.5997 70.9587 36.1984C67.3758 37.9685 63.4931 39.5672 59.5819 40.8947C55.6421 42.1652 51.5739 43.1786 47.4485 43.6924C39.2407 44.7773 30.833 44.7916 22.7251 43.15C18.6568 42.4077 14.6885 41.2516 10.8486 39.7813C7.03733 38.2539 3.31169 36.4695 0 34.0571Z" fill="#292F36"/>
<path d="M136.507 10.2902C133.324 8.93412 130.084 7.8778 126.801 7.04988C123.532 6.17913 120.22 5.56533 116.894 5.1371C115.238 4.88015 113.554 4.82306 111.898 4.62321C110.228 4.58039 108.572 4.40909 106.902 4.48047C106.074 4.49474 105.232 4.49474 104.404 4.48047C103.576 4.48047 102.734 4.56611 101.906 4.59466C101.078 4.65176 100.236 4.66604 99.4079 4.75168L96.9242 5.05145C93.5982 5.32266 90.3722 6.00784 87.1461 6.85004C83.8773 7.63514 80.7797 8.74855 77.4823 9.86197C74.0992 10.9896 70.4306 11.6748 66.7478 11.1609C64.9349 10.8612 63.1078 10.2188 61.6661 9.07686C60.1958 7.94918 59.1966 6.40753 58.5828 4.7945C59.5963 6.20768 60.8524 7.36392 62.2942 8.07765C63.7359 8.79138 65.3203 9.09114 66.9048 9.07686C70.1023 9.07686 73.2713 8.0491 76.2689 6.76439C79.3237 5.30839 82.6782 4.02368 86.0184 2.96737C89.3872 1.95387 92.8987 1.18305 96.4103 0.811915C103.419 0.0696395 110.585 0.240934 117.451 1.86823C120.891 2.59623 124.246 3.70964 127.457 5.08C130.683 6.4789 133.795 8.1062 136.507 10.2902Z" fill="#292F36"/>
</g>
<defs>
<clipPath id="clip0_2_190">
<rect width="145" height="45" fill="white" transform="translate(0 0.390625)"/>
</clipPath>
</defs>
</svg>
