<svg width="150" height="39" viewBox="0 0 150 39" fill="none" xmlns="http://www.w3.org/2000/svg">
<g clip-path="url(#clip0_1_263)">
<path d="M17.6329 38.5C16.7306 38.5 15.8383 38.24 14.956 37.72C14.0938 37.22 12.9909 36.44 11.6475 35.38C10.6449 34.58 9.78268 33.93 9.06081 33.43C8.359 32.95 7.58701 32.54 6.74483 32.2C5.92271 31.86 5.08054 31.69 4.21831 31.69C3.91753 31.69 3.68694 31.7 3.52652 31.72L8.00809 10.93C6.66463 11.47 5.62193 12.3 4.88002 13.42C4.15815 14.52 3.79722 15.87 3.79722 17.47C3.79722 18.21 3.8674 18.73 4.00777 19.03C4.14813 19.31 4.21831 19.47 4.21831 19.51C3.13551 19.51 2.32342 19.29 1.78202 18.85C1.26067 18.39 1 17.64 1 16.6C1 15.32 1.52135 14.08 2.56404 12.88C3.62678 11.66 4.98028 10.68 6.62452 9.94C8.26877 9.18 9.91301 8.8 11.5572 8.8C11.838 8.8 12.239 8.82 12.7604 8.86L8.1284 30.4C8.68985 30.54 9.26133 30.74 9.84283 31C10.4444 31.28 11.1662 31.65 12.0084 32.11C13.3118 32.81 14.4247 33.34 15.347 33.7C16.2694 34.08 17.2319 34.27 18.2345 34.27C19.1368 34.27 19.979 34.11 20.761 33.79C20.6006 35.25 20.2397 36.4 19.6782 37.24C19.1368 38.08 18.4551 38.5 17.6329 38.5ZM16.6075 31.12C15.1237 31.12 13.9506 30.74 13.0884 29.98C12.2262 29.22 11.7951 28.02 11.7951 26.38C11.7951 25.02 12.0758 23.51 12.6372 21.85C13.1987 20.19 14.101 18.76 15.3442 17.56C16.5874 16.34 18.1515 15.73 20.0363 15.73C22.603 15.73 23.8863 17.33 23.8863 20.53V20.56C23.9464 20.58 24.0567 20.59 24.2171 20.59C24.8788 20.59 25.6408 20.42 26.503 20.08C27.3653 19.72 28.1473 19.29 28.8491 18.79L29.1198 19.6C28.5383 20.22 27.7763 20.75 26.8339 21.19C25.9115 21.61 24.8989 21.91 23.796 22.09C23.6356 23.91 23.2246 25.5 22.5629 26.86C21.9012 28.22 21.049 29.27 20.0063 30.01C18.9636 30.75 17.8306 31.12 16.6075 31.12ZM17.8106 28.42C18.2918 28.42 18.7731 28.15 19.2543 27.61C19.7356 27.05 20.1566 26.3 20.5176 25.36C20.8785 24.4 21.1392 23.34 21.2996 22.18C20.7582 22.06 20.4875 21.64 20.4875 20.92C20.4875 20.1 20.7983 19.56 21.4199 19.3C21.3798 18.64 21.2795 18.19 21.1191 17.95C20.9587 17.69 20.678 17.56 20.277 17.56C19.6153 17.56 18.9736 18.04 18.352 19C17.7304 19.96 17.2291 21.11 16.8481 22.45C16.4671 23.79 16.2766 24.97 16.2766 25.99C16.2766 26.95 16.3869 27.6 16.6075 27.94C16.8281 28.26 17.2291 28.42 17.8106 28.42ZM27.4792 16H31.8103L31.4193 17.86C32.1011 17.26 32.7127 16.8 33.2541 16.48C33.8155 16.16 34.4171 16 35.0587 16C35.7004 16 36.2017 16.22 36.5626 16.66C36.9436 17.1 37.1341 17.63 37.1341 18.25C37.1341 18.83 36.9436 19.34 36.5626 19.78C36.1816 20.22 35.6502 20.44 34.9685 20.44C34.5273 20.44 34.2266 20.34 34.0662 20.14C33.9258 19.92 33.8155 19.61 33.7353 19.21C33.6751 18.95 33.615 18.76 33.5548 18.64C33.4947 18.52 33.3844 18.46 33.224 18.46C32.8029 18.46 32.442 18.55 32.1412 18.73C31.8605 18.89 31.4895 19.18 31.0283 19.6L28.6221 31H24.2909L27.4792 16ZM41.0435 31.18C39.5596 31.18 38.4067 30.8 37.5845 30.04C36.7624 29.26 36.3514 28.05 36.3514 26.41C36.3514 25.03 36.6221 23.51 37.1635 21.85C37.7049 20.19 38.5871 18.76 39.8103 17.56C41.0334 16.34 42.5875 15.73 44.4723 15.73C46.678 15.73 47.7809 16.69 47.7809 18.61C47.7809 19.73 47.46 20.76 46.8184 21.7C46.1767 22.64 45.3245 23.4 44.2618 23.98C43.199 24.54 42.0661 24.86 40.863 24.94C40.8229 25.54 40.8029 25.94 40.8029 26.14C40.8029 27.12 40.9733 27.79 41.3142 28.15C41.6551 28.49 42.2065 28.66 42.9684 28.66C44.0512 28.66 44.9736 28.41 45.7356 27.91C46.5176 27.41 47.3698 26.65 48.2922 25.63H49.3148C47.0891 29.33 44.332 31.18 41.0435 31.18ZM41.1036 23.5C41.8455 23.46 42.5474 23.2 43.2091 22.72C43.8908 22.24 44.4322 21.63 44.8333 20.89C45.2543 20.15 45.4649 19.37 45.4649 18.55C45.4649 17.73 45.2142 17.32 44.7129 17.32C43.9911 17.32 43.2792 17.95 42.5774 19.21C41.8957 20.47 41.4044 21.9 41.1036 23.5ZM66.0618 31.18C64.999 31.18 64.227 30.86 63.7458 30.22C63.2645 29.58 63.0239 28.77 63.0239 27.79C63.0239 27.37 63.0741 26.9 63.1743 26.38C63.2746 25.84 63.3748 25.32 63.4751 24.82C63.5954 24.32 63.6756 24 63.7157 23.86C63.8761 23.16 64.0265 22.47 64.1669 21.79C64.3072 21.11 64.3774 20.56 64.3774 20.14C64.3774 19.12 64.0165 18.61 63.2946 18.61C62.7733 18.61 62.3121 18.87 61.911 19.39C61.51 19.89 61.1892 20.55 60.9486 21.37L58.9033 31H54.5721L56.7678 20.65C56.8279 20.41 56.858 20.16 56.858 19.9C56.858 19.02 56.5572 18.58 55.9557 18.58C55.3942 18.58 54.903 18.84 54.4819 19.36C54.0808 19.86 53.76 20.53 53.5194 21.37L51.4741 31H47.1429L50.3312 16H54.6623L54.3315 17.56C55.3541 16.42 56.5773 15.85 58.001 15.85C59.7655 15.85 60.7982 16.71 61.099 18.43C62.2018 16.73 63.5954 15.88 65.2798 15.88C66.3024 15.88 67.1145 16.16 67.716 16.72C68.3176 17.28 68.6184 18.13 68.6184 19.27C68.6184 19.85 68.5482 20.5 68.4078 21.22C68.2675 21.92 68.0669 22.78 67.8063 23.8C67.6459 24.42 67.4955 25.03 67.3551 25.63C67.2348 26.21 67.1746 26.67 67.1746 27.01C67.1746 27.41 67.2649 27.72 67.4453 27.94C67.6258 28.16 67.9366 28.27 68.3777 28.27C68.859 28.27 69.1898 28.21 69.3703 28.09C69.25 29.11 68.879 29.88 68.2574 30.4C67.6559 30.92 66.924 31.18 66.0618 31.18ZM83.0847 10.63C81.7413 11.17 80.6986 12 79.9566 13.12C79.2348 14.22 78.8738 15.57 78.8738 17.17C78.8738 17.91 78.944 18.43 79.0844 18.73C79.2248 19.01 79.2949 19.17 79.2949 19.21C78.2121 19.21 77.4 18.99 76.8587 18.55C76.3373 18.09 76.0766 17.34 76.0766 16.3C76.0766 15.02 76.598 13.78 77.6407 12.58C78.7034 11.36 80.0569 10.38 81.7011 9.64C83.3454 8.88 84.9896 8.5 86.6339 8.5C86.9146 8.5 87.3156 8.52 87.837 8.56L83.0546 31H78.7235L83.0847 10.63ZM89.4612 14.89H93.7924L93.3111 17.14C94.3137 16.28 95.4867 15.85 96.8302 15.85C97.9531 15.85 98.8454 16.22 99.5071 16.96C100.169 17.7 100.5 18.91 100.5 20.59C100.5 22.17 100.269 23.77 99.8079 25.39C99.3467 26.99 98.5647 28.36 97.4618 29.5C96.359 30.62 94.9052 31.18 93.1006 31.18C91.8173 31.18 90.9651 30.82 90.544 30.1L88.9799 37.42L84.4382 38.5L89.4612 14.89ZM92.1682 28.57C93.1307 28.57 93.9227 28.12 94.5443 27.22C95.186 26.32 95.6472 25.25 95.9279 24.01C96.2287 22.75 96.379 21.58 96.379 20.5C96.379 18.84 95.8777 18.01 94.8752 18.01C94.5142 18.01 94.1433 18.14 93.7623 18.4C93.4014 18.66 93.0805 19.02 92.7998 19.48L91.0252 27.88C91.1856 28.34 91.5666 28.57 92.1682 28.57ZM104.674 31.18C103.711 31.18 102.899 31 102.237 30.64C101.576 30.26 101.084 29.78 100.763 29.2C100.443 28.6 100.282 27.98 100.282 27.34C100.282 26.68 100.443 26.11 100.763 25.63C101.064 25.13 101.435 24.77 101.876 24.55C102.658 23.15 103.34 21.74 103.922 20.32C104.503 18.88 105.055 17.33 105.576 15.67L110.027 15.07C110.128 17.63 110.298 20.4 110.539 23.38C110.639 24.58 110.689 25.45 110.689 25.99C110.689 26.45 110.649 26.83 110.569 27.13C111.511 26.59 112.233 26.09 112.734 25.63H113.998C112.714 27.11 111.18 28.36 109.396 29.38C108.814 30 108.092 30.46 107.23 30.76C106.388 31.04 105.536 31.18 104.674 31.18ZM103.711 28.81C104.453 28.81 105.075 28.59 105.576 28.15C106.077 27.71 106.328 27 106.328 26.02C106.328 25.42 106.268 24.58 106.147 23.5C105.947 21.22 105.817 19.69 105.756 18.91C105.275 20.49 104.463 22.38 103.32 24.58C103.781 24.82 104.012 25.17 104.012 25.63C104.012 26.01 103.882 26.35 103.621 26.65C103.38 26.95 103.069 27.1 102.688 27.1C102.267 27.1 101.997 26.97 101.876 26.71C101.876 27.43 102.017 27.96 102.297 28.3C102.598 28.64 103.069 28.81 103.711 28.81ZM115.707 31.18C114.745 31.18 113.963 30.88 113.361 30.28C112.779 29.68 112.489 28.78 112.489 27.58C112.489 27.08 112.569 26.43 112.729 25.63L114.775 16H119.106L116.94 26.2C116.88 26.5 116.85 26.78 116.85 27.04C116.85 27.86 117.151 28.27 117.752 28.27C118.314 28.27 118.795 28.04 119.196 27.58C119.597 27.1 119.918 26.45 120.159 25.63L122.204 16H126.535L124.369 26.2C124.289 26.5 124.249 26.82 124.249 27.16C124.249 27.56 124.339 27.85 124.52 28.03C124.72 28.19 125.041 28.27 125.482 28.27C126.044 28.27 126.525 28.03 126.926 27.55C127.347 27.07 127.678 26.43 127.919 25.63H129.182C128.44 27.79 127.518 29.26 126.415 30.04C125.332 30.8 124.239 31.18 123.136 31.18C122.274 31.18 121.582 30.94 121.061 30.46C120.56 29.98 120.259 29.27 120.159 28.33C119.477 29.43 118.755 30.18 117.993 30.58C117.251 30.98 116.489 31.18 115.707 31.18ZM145.691 31.18C144.629 31.18 143.857 30.86 143.375 30.22C142.894 29.58 142.654 28.77 142.654 27.79C142.654 27.37 142.704 26.9 142.804 26.38C142.904 25.84 143.005 25.32 143.105 24.82C143.225 24.32 143.305 24 143.345 23.86C143.506 23.16 143.656 22.47 143.797 21.79C143.937 21.11 144.007 20.56 144.007 20.14C144.007 19.12 143.646 18.61 142.924 18.61C142.403 18.61 141.942 18.87 141.541 19.39C141.14 19.89 140.819 20.55 140.578 21.37L138.533 31H134.202L136.397 20.65C136.458 20.41 136.488 20.16 136.488 19.9C136.488 19.02 136.187 18.58 135.585 18.58C135.024 18.58 134.533 18.84 134.112 19.36C133.711 19.86 133.39 20.53 133.149 21.37L131.104 31H126.773L129.961 16H134.292L133.961 17.56C134.984 16.42 136.207 15.85 137.631 15.85C139.395 15.85 140.428 16.71 140.729 18.43C141.831 16.73 143.225 15.88 144.909 15.88C145.932 15.88 146.744 16.16 147.346 16.72C147.947 17.28 148.248 18.13 148.248 19.27C148.248 19.85 148.178 20.5 148.038 21.22C147.897 21.92 147.697 22.78 147.436 23.8C147.276 24.42 147.125 25.03 146.985 25.63C146.864 26.21 146.804 26.67 146.804 27.01C146.804 27.41 146.895 27.72 147.075 27.94C147.255 28.16 147.566 28.27 148.007 28.27C148.489 28.27 148.82 28.21 149 28.09C148.88 29.11 148.509 29.88 147.887 30.4C147.286 30.92 146.554 31.18 145.691 31.18Z" fill="#292F36"/>
</g>
<defs>
<clipPath id="clip0_1_263">
<rect width="150" height="38" fill="white" transform="translate(0 0.5)"/>
</clipPath>
</defs>
</svg>
