<svg width="164" height="44" viewBox="0 0 164 44" fill="none" xmlns="http://www.w3.org/2000/svg">
<g clip-path="url(#clip0_2_183)">
<path d="M34.7971 43.1666H7.97888C3.57173 43.1666 0 39.5949 0 35.1877V8.36951C0 3.96237 3.57173 0.390625 7.97888 0.390625H34.7971C39.2043 0.390625 42.776 3.96237 42.776 8.36951V35.1877C42.776 39.5949 39.2043 43.1666 34.7971 43.1666Z" fill="#292F36"/>
<path d="M29.0944 22.1722C29.8572 23.1287 30.2446 24.2426 30.2446 25.5018C30.2446 27.3542 29.6271 28.8071 28.3922 29.8363C27.1572 30.8654 25.3895 31.3982 23.0891 31.3982H13.0398V9.78613H22.8469C25.0505 9.78613 26.7456 10.2704 27.9442 11.2269C29.1429 12.1834 29.7482 13.5516 29.7482 15.3193C29.7482 16.6269 29.3971 17.7045 28.707 18.5762C28.0169 19.448 27.1088 20.0049 25.9828 20.2713C27.3025 20.5861 28.3316 21.2157 29.0944 22.1722ZM18.2582 18.6247H21.6846C23.5007 18.6247 24.4088 17.8498 24.4088 16.3C24.4088 14.7503 23.4765 13.9754 21.6241 13.9754H18.2582V18.6247ZM24.8931 24.7753C24.8931 24.0004 24.6388 23.3951 24.1303 22.9592C23.6218 22.5233 22.8953 22.3054 21.9631 22.3054H18.2703V27.1605H21.9994C23.9245 27.1484 24.8931 26.3614 24.8931 24.7753Z" fill="white"/>
<path d="M67.5603 31.3982L62.8867 23.2376H61.7002V31.3982H56.4697V9.78613H65.393C67.1002 9.78613 68.5531 10.0767 69.7275 10.67C70.9141 11.2633 71.7979 12.0745 72.3912 13.1036C72.9844 14.1328 73.275 15.3072 73.275 16.639C73.275 18.213 72.8391 19.5448 71.9795 20.6466C71.1078 21.7484 69.8607 22.4991 68.202 22.9108L73.3356 31.4103H67.5603V31.3982ZM61.7002 19.6659H64.9329C65.9742 19.6659 66.7369 19.4359 67.2212 18.9758C67.7056 18.5157 67.9598 17.8377 67.9598 16.9417C67.9598 16.0821 67.7055 15.4162 67.2091 14.9198C66.7127 14.4354 65.9499 14.1812 64.9329 14.1812H61.7002V19.6659Z" fill="#292F36"/>
<path d="M96.9332 27.4631H88.8332L87.4893 31.4101H81.9924L89.9108 9.95557H95.9282L103.847 31.4101H98.2892L96.9332 27.4631ZM95.5892 23.4797L92.9014 15.5371L90.1772 23.4797H95.5892Z" fill="#292F36"/>
<path d="M132.699 31.3982H127.468L118.727 18.1283V31.3982H113.496V9.78613H118.727L127.468 23.1771V9.78613H132.699V31.3982Z" fill="#292F36"/>
<path d="M162.023 26.1917C161.115 27.8263 159.808 29.1097 158.113 30.0298C156.405 30.95 154.408 31.4101 152.107 31.4101H143.947V9.7981H152.107C154.432 9.7981 156.442 10.2461 158.125 11.142C159.82 12.038 161.115 13.2972 162.023 14.9317C162.931 16.5662 163.379 18.4308 163.379 20.5617C163.379 22.6684 162.919 24.5451 162.023 26.1917ZM156.393 25.102C157.519 24.0245 158.088 22.4989 158.088 20.5496C158.088 18.5882 157.519 17.0747 156.393 15.9972C155.267 14.9196 153.681 14.3748 151.635 14.3748H149.165V26.7245H151.635C153.681 26.7245 155.267 26.1917 156.393 25.102Z" fill="#292F36"/>
</g>
<defs>
<clipPath id="clip0_2_183">
<rect width="164" height="43" fill="white" transform="translate(0 0.390625)"/>
</clipPath>
</defs>
</svg>
