<svg width="132" height="44" viewBox="0 0 132 44" fill="none" xmlns="http://www.w3.org/2000/svg">
<g clip-path="url(#clip0_2_144)">
<path d="M11.6337 0.390625V0.576195L10.8629 0.761763V8.9839L11.6337 9.16947V9.35503H7.97946V9.16947L8.7503 8.9839V1.9751L5.7241 9.48351H5.33866L1.41317 1.9751V8.78405L2.44093 9.16947V9.35503H0V9.16947L1.02777 8.78405V0.761763L0.256931 0.576195V0.390625H1.85567C2.09834 0.390625 2.31246 0.419173 2.48376 0.476272C2.65505 0.53337 2.82637 0.604742 2.95484 0.704664C3.09758 0.804586 3.21178 0.918784 3.3117 1.04725C3.41162 1.17573 3.49728 1.33275 3.58292 1.48977L6.38072 6.84271L8.5219 1.48977C8.59327 1.3042 8.66466 1.14718 8.76459 1.01871C8.85023 0.890235 8.9644 0.776039 9.09287 0.676117C9.22134 0.576195 9.37839 0.50482 9.56396 0.461997C9.74953 0.419173 9.9779 0.390625 10.2634 0.390625H11.6337Z" fill="#292F36"/>
<path d="M16.2015 2.77441C16.7297 2.77441 17.215 2.84578 17.629 3.0028C18.043 3.15982 18.3998 3.38821 18.6996 3.67371C18.9994 3.97347 19.2135 4.33033 19.3705 4.7443C19.5275 5.15826 19.5989 5.64359 19.5989 6.17175C19.5989 6.69991 19.5275 7.18524 19.3705 7.5992C19.2135 8.01316 18.9851 8.37003 18.6996 8.66979C18.3998 8.96956 18.043 9.18368 17.629 9.3407C17.215 9.49772 16.7297 9.56909 16.2015 9.56909C15.6734 9.56909 15.1881 9.49772 14.7741 9.3407C14.3601 9.18368 14.0033 8.95528 13.7035 8.66979C13.4037 8.37003 13.1896 8.01316 13.0326 7.5992C12.8756 7.18524 12.8042 6.69991 12.8042 6.17175C12.8042 5.64359 12.8756 5.15826 13.0326 4.7443C13.1896 4.33033 13.418 3.97347 13.7035 3.67371C14.0033 3.37394 14.3601 3.15982 14.7741 3.0028C15.1881 2.84578 15.6591 2.77441 16.2015 2.77441ZM16.2015 9.32642C16.3443 9.32642 16.487 9.2836 16.6441 9.18368C16.7868 9.08376 16.9153 8.92673 17.0294 8.68407C17.1436 8.4414 17.2436 8.12736 17.315 7.72767C17.3863 7.31371 17.4291 6.79983 17.4291 6.18602C17.4291 5.55794 17.3863 5.04406 17.315 4.64437C17.2436 4.24469 17.1436 3.91637 17.0294 3.68798C16.9153 3.45959 16.7868 3.2883 16.6441 3.18837C16.5013 3.08845 16.3586 3.04563 16.2015 3.04563C16.0588 3.04563 15.9161 3.08845 15.759 3.18837C15.6163 3.2883 15.4878 3.44531 15.3736 3.68798C15.2594 3.93065 15.1595 4.24469 15.0881 4.64437C15.0168 5.05834 14.9739 5.57222 14.9739 6.18602C14.9739 6.8141 15.0168 7.32799 15.0881 7.72767C15.1595 8.12736 15.2594 8.45568 15.3736 8.68407C15.4878 8.91246 15.6163 9.08376 15.759 9.18368C15.9018 9.26932 16.0445 9.32642 16.2015 9.32642Z" fill="#292F36"/>
<path d="M25.8369 0.390625C26.6078 0.390625 26.9932 0.776037 26.9932 1.54686V8.99817L27.764 9.18373V9.3693H26.6078C26.2937 9.3693 26.051 9.32649 25.8655 9.22657C25.6799 9.12665 25.5229 9.01244 25.423 8.89824C25.2945 8.7555 25.1946 8.58421 25.1375 8.41292C25.0233 8.6413 24.8805 8.82687 24.7092 8.99817C24.5665 9.14091 24.3666 9.26938 24.124 9.39785C23.8813 9.52633 23.5958 9.58342 23.2675 9.58342C22.8964 9.58342 22.5538 9.51205 22.2397 9.3693C21.9114 9.22656 21.6402 9.01245 21.4118 8.72696C21.1834 8.44147 20.9836 8.0846 20.8551 7.67064C20.7124 7.24241 20.6553 6.75707 20.6553 6.18609C20.6553 5.61511 20.7267 5.12978 20.8551 4.70154C20.9979 4.2733 21.1834 3.93072 21.4404 3.64523C21.683 3.35972 21.9828 3.14562 22.3254 3.00287C22.668 2.86012 23.0534 2.78874 23.4816 2.78874C23.71 2.78874 23.9099 2.8173 24.0954 2.86012C24.281 2.91722 24.438 2.97432 24.5665 3.04569C24.7235 3.11706 24.852 3.2027 24.9662 3.30263V0.804588L24.1954 0.619017V0.43345H25.8369V0.390625ZM24.9376 3.67376C24.8377 3.57384 24.7521 3.4882 24.6379 3.41683C24.538 3.34546 24.438 3.28836 24.3238 3.23126C24.2096 3.17415 24.0954 3.15988 23.967 3.15988C23.81 3.15988 23.6529 3.20271 23.5102 3.28836C23.3674 3.37401 23.2532 3.51675 23.139 3.73087C23.0391 3.94498 22.9535 4.25902 22.8964 4.64443C22.8393 5.04413 22.8107 5.54374 22.8107 6.17181C22.8107 6.78561 22.8393 7.27096 22.8964 7.65636C22.9535 8.04177 23.0249 8.34154 23.1248 8.55565C23.2104 8.76977 23.3104 8.9268 23.4388 8.99817C23.553 9.06954 23.6672 9.11236 23.7814 9.11236C23.9812 9.11236 24.1525 9.05527 24.2953 8.95535C24.438 8.85542 24.5522 8.72696 24.6521 8.59848C24.7663 8.44147 24.8663 8.27017 24.9519 8.0846V3.67376H24.9376Z" fill="#292F36"/>
<path d="M32.0605 9.5835C30.9614 9.5835 30.1049 9.28374 29.5054 8.68421C28.8916 8.08467 28.5918 7.24248 28.5918 6.18616C28.5918 5.658 28.6632 5.17267 28.8202 4.75871C28.9772 4.34475 29.1913 3.98788 29.4626 3.68812C29.7338 3.38835 30.0621 3.17424 30.4618 3.01722C30.8472 2.8602 31.2754 2.78882 31.7465 2.78882C32.2318 2.78882 32.6601 2.8602 33.0312 2.98867C33.4166 3.13141 33.7306 3.31698 34.0019 3.54537C34.2731 3.77377 34.4729 4.04498 34.6157 4.35902C34.7584 4.67306 34.8298 5.00138 34.8298 5.35824C34.8298 5.47243 34.8298 5.58663 34.8155 5.67228C34.8012 5.75793 34.787 5.84357 34.7727 5.91495C34.7441 6.00059 34.7298 6.07197 34.7013 6.12906C34.3302 6.20044 33.9305 6.27181 33.5022 6.31463C33.1454 6.37173 32.7314 6.41455 32.2604 6.4431C31.7893 6.47165 31.304 6.5002 30.7901 6.5002C30.7901 7.02836 30.8329 7.47087 30.9043 7.82774C30.9756 8.1846 31.0898 8.47009 31.2183 8.66993C31.3611 8.88405 31.5181 9.0268 31.7036 9.11244C31.8892 9.19809 32.1034 9.24091 32.3175 9.24091C32.5744 9.24091 32.8171 9.19809 33.0454 9.09817C33.2738 8.99825 33.4737 8.88405 33.6307 8.72703C33.802 8.57001 33.9305 8.38444 34.0304 8.1846C34.1303 7.98476 34.1731 7.78491 34.1731 7.57079H34.4872C34.4872 7.82773 34.4301 8.0704 34.3159 8.31307C34.2017 8.55573 34.0304 8.76985 33.8163 8.95542C33.6022 9.14099 33.3452 9.28374 33.0454 9.39793C32.76 9.5264 32.4316 9.5835 32.0605 9.5835ZM30.7758 6.17189C31.0613 6.17189 31.3182 6.17189 31.5466 6.15761C31.775 6.14334 31.9606 6.12906 32.1176 6.11479C32.3032 6.10052 32.4459 6.07196 32.5744 6.05769C32.5887 5.97204 32.6172 5.87212 32.6315 5.7722C32.6458 5.67228 32.6601 5.57236 32.6743 5.45816C32.6886 5.34396 32.6886 5.2155 32.6886 5.08702C32.6886 4.70161 32.66 4.3733 32.6029 4.11636C32.5458 3.85941 32.4745 3.64529 32.3745 3.474C32.2889 3.31698 32.189 3.18851 32.0605 3.13141C31.932 3.07431 31.8321 3.03149 31.7179 3.03149C31.6037 3.03149 31.4895 3.07431 31.3753 3.15996C31.2612 3.24561 31.1612 3.40263 31.0613 3.61675C30.9757 3.84514 30.89 4.15918 30.8329 4.57314C30.7758 4.9871 30.7758 5.51526 30.7758 6.17189Z" fill="#292F36"/>
<path d="M40.2255 3.21712C39.9686 3.21712 39.7402 3.27422 39.5403 3.37414C39.3405 3.47406 39.1692 3.60253 39.0264 3.731C38.8694 3.88802 38.7409 4.05932 38.6125 4.24489V8.99831L39.3833 9.18387V9.36944H35.7861V9.18387L36.557 8.99831V3.34559L35.7861 3.16002V2.97445H36.9424C37.2421 2.97445 37.4848 3.03155 37.6846 3.13147C37.8702 3.23139 38.0272 3.34559 38.1414 3.45979C38.2699 3.60253 38.3698 3.75955 38.4269 3.93084C38.5554 3.74528 38.7124 3.57398 38.898 3.41696C39.055 3.28849 39.2549 3.1743 39.4975 3.0601C39.7402 2.9459 40.0114 2.90308 40.3397 2.90308C40.7965 2.90308 41.1391 3.01727 41.3675 3.21712C41.5959 3.43124 41.6958 3.731 41.6958 4.11642C41.6958 4.40191 41.6101 4.64457 41.4388 4.81587C41.2675 4.98716 41.0249 5.07281 40.7394 5.07281C40.668 5.07281 40.6109 5.07281 40.5395 5.07281C40.4682 5.07281 40.4254 5.05853 40.3825 5.05853C40.3254 5.04426 40.2683 5.04426 40.2255 5.01571V3.21712Z" fill="#292F36"/>
<path d="M47.2201 4.88715C47.2201 4.60166 47.1915 4.34472 47.1344 4.13061C47.0773 3.91649 47.006 3.74519 46.9061 3.61672C46.8204 3.47398 46.7205 3.37405 46.592 3.31695C46.4778 3.25986 46.3636 3.21703 46.2494 3.21703C46.0496 3.21703 45.8783 3.27413 45.7355 3.37405C45.5928 3.47398 45.4643 3.60245 45.3787 3.73092C45.2645 3.88794 45.1788 4.05923 45.0932 4.2448V8.99822L45.864 9.18379V9.36936H42.2668V9.18379L43.0376 8.99822V3.3455L42.2668 3.15994V2.97437H43.4231C43.7228 2.97437 43.9655 3.03147 44.1653 3.13139C44.3509 3.23131 44.5079 3.3455 44.6221 3.4597C44.7506 3.60245 44.8505 3.75947 44.9076 3.93076C45.0218 3.71664 45.1646 3.5168 45.3359 3.3455C45.4786 3.20276 45.6784 3.07429 45.9068 2.94582C46.1352 2.81735 46.435 2.76025 46.7776 2.76025C47.1487 2.76025 47.4913 2.81735 47.7911 2.94582C48.1051 3.06002 48.362 3.23131 48.5762 3.41688C48.7903 3.61672 48.9616 3.83084 49.0901 4.08778C49.2185 4.34472 49.2756 4.60166 49.2756 4.87288V8.98395L50.0464 9.16951V9.35509H48.3763C47.6055 9.35509 47.2201 8.96967 47.2201 8.19885V4.88715Z" fill="#292F36"/>
<path d="M1.35596 18.3907V17.8625H11.2767V18.3907L9.19266 18.9189V29.6961H16.6725V18.9189L14.5884 18.3907V17.8625H24.5093V18.3907L22.4251 18.9189V41.1871L24.5093 41.7153V42.2435H14.5884V41.701L16.6725 41.1729V30.5669H9.19266V41.1729L11.2767 41.701V42.2292H1.35596V41.701L3.44003 41.1729V18.9046L1.35596 18.3907Z" fill="#292F36"/>
<path d="M36.8424 24.3005C38.2842 24.3005 39.5689 24.5146 40.7108 24.9285C41.8528 25.3425 42.8092 25.9563 43.6085 26.7557C44.4079 27.555 45.0217 28.5257 45.4357 29.6677C45.8496 30.8096 46.0638 32.0943 46.0638 33.5361C46.0638 34.9778 45.8496 36.2625 45.4357 37.4045C45.0217 38.5464 44.4079 39.5028 43.6085 40.3022C42.8092 41.1016 41.8385 41.7154 40.7108 42.1293C39.5689 42.5433 38.2842 42.7574 36.8424 42.7574C35.4007 42.7574 34.116 42.5433 32.974 42.1293C31.8321 41.7154 30.8757 41.1016 30.0763 40.3022C29.2769 39.5028 28.6631 38.5322 28.2492 37.4045C27.8352 36.2625 27.6211 34.9778 27.6211 33.5361C27.6211 32.0943 27.8352 30.8096 28.2492 29.6677C28.6631 28.5257 29.2769 27.5693 30.0763 26.7557C30.8757 25.942 31.8464 25.3425 32.974 24.9285C34.116 24.5146 35.4007 24.3005 36.8424 24.3005ZM36.8424 42.0437C37.2421 42.0437 37.6276 41.9152 38.0272 41.6583C38.4269 41.4013 38.7695 40.9588 39.0835 40.3165C39.3976 39.6741 39.6545 38.8034 39.8544 37.7042C40.0542 36.6051 40.1541 35.2062 40.1541 33.5075C40.1541 31.8089 40.0542 30.4099 39.8544 29.3108C39.6545 28.2117 39.3976 27.3409 39.0835 26.6986C38.7695 26.0562 38.4127 25.6137 38.0272 25.3568C37.6418 25.0998 37.2421 24.9714 36.8424 24.9714C36.4427 24.9714 36.0574 25.0998 35.6577 25.3568C35.258 25.6137 34.9154 26.0562 34.6013 26.6986C34.2873 27.3409 34.0304 28.2117 33.8305 29.3108C33.6307 30.4099 33.5307 31.8089 33.5307 33.5075C33.5307 35.2062 33.6307 36.6051 33.8305 37.7042C34.0304 38.8034 34.2873 39.6741 34.6013 40.3165C34.9154 40.9588 35.2723 41.4013 35.6577 41.6583C36.0574 41.9152 36.4427 42.0437 36.8424 42.0437Z" fill="#292F36"/>
<path d="M72.1436 30.0389C72.1436 29.211 72.0722 28.4972 71.9295 27.9405C71.7867 27.3838 71.6154 26.9128 71.387 26.5559C71.1587 26.1991 70.916 25.9421 70.659 25.7708C70.3878 25.6138 70.1309 25.5281 69.8739 25.5281C69.4314 25.5281 69.046 25.6709 68.7034 25.9564C68.3608 26.2419 68.0754 26.5702 67.8184 26.9128C67.5472 27.3267 67.2902 27.7978 67.0904 28.2974V41.173L69.1888 41.7012V42.2294H59.4535V41.7012L61.5376 41.173V30.0389C61.5376 29.211 61.4662 28.4972 61.3235 27.9405C61.1807 27.3838 61.0094 26.9128 60.781 26.5559C60.5526 26.1991 60.31 25.9421 60.0531 25.7708C59.7818 25.6138 59.5249 25.5281 59.2679 25.5281C58.8254 25.5281 58.44 25.6709 58.0975 25.9564C57.7549 26.2419 57.4693 26.5702 57.2124 26.9128C56.9269 27.3267 56.6843 27.7978 56.4844 28.2974V41.173L58.5685 41.7012V42.2294H48.8333V41.7012L50.9174 41.173V25.8707L48.8333 25.3426V24.8144H51.9594C52.773 24.8144 53.4439 24.9572 53.9578 25.2284C54.486 25.4996 54.8857 25.8136 55.1997 26.1277C55.5423 26.5274 55.7992 26.9556 55.9705 27.4124C56.2703 26.8271 56.6414 26.3132 57.0839 25.8422C57.4836 25.4425 57.969 25.0856 58.54 24.7573C59.1252 24.429 59.8247 24.272 60.6669 24.272C62.0515 24.272 63.2648 24.586 64.264 25.1998C65.2775 25.8136 66.0484 26.613 66.5765 27.5837C66.8763 26.9841 67.2474 26.4417 67.6899 25.9421C68.0896 25.5281 68.5749 25.1427 69.1459 24.8001C69.7312 24.4576 70.4306 24.272 71.2728 24.272C72.2292 24.272 73.0857 24.429 73.8851 24.7288C74.6702 25.0285 75.3554 25.4425 75.9263 25.9707C76.4973 26.4988 76.9398 27.0983 77.2539 27.7978C77.5679 28.4973 77.7249 29.2395 77.7249 30.0246V41.1588L79.809 41.6869V42.2151H75.284C73.1999 42.2151 72.1578 41.173 72.1578 39.089V30.0389H72.1436Z" fill="#292F36"/>
<path d="M91.2857 42.743C88.3166 42.743 86.0041 41.9294 84.3626 40.2878C82.721 38.6462 81.8931 36.4051 81.8931 33.5217C81.8931 32.08 82.1072 30.7953 82.5211 29.6533C82.9351 28.5113 83.5204 27.5549 84.2626 26.7413C85.0049 25.9419 85.9042 25.3281 86.9606 24.9141C88.0169 24.5002 89.1731 24.2861 90.415 24.2861C91.7139 24.2861 92.8845 24.4716 93.9122 24.8428C94.94 25.2139 95.825 25.7135 96.5388 26.3416C97.2525 26.9697 97.8092 27.712 98.1946 28.5542C98.58 29.3963 98.7656 30.2956 98.7656 31.252C98.7656 31.5804 98.7513 31.8658 98.7085 32.1085C98.6656 32.3512 98.6371 32.5653 98.58 32.7509C98.5086 32.9793 98.4515 33.1791 98.4087 33.3361C97.3809 33.5502 96.3104 33.7215 95.1684 33.8643C94.1977 34.007 93.07 34.1212 91.7996 34.2354C90.5292 34.3353 89.1874 34.3924 87.8027 34.3924C87.8027 35.8342 87.9027 37.0332 88.1168 37.9896C88.3309 38.946 88.6164 39.7168 88.9875 40.2878C89.3587 40.8588 89.8012 41.2585 90.315 41.5012C90.8289 41.7438 91.3856 41.8723 91.9852 41.8723C92.6846 41.8723 93.3413 41.7438 93.9551 41.4869C94.5689 41.2299 95.097 40.8874 95.5538 40.4591C96.0106 40.0309 96.3675 39.5455 96.6387 39.0031C96.9099 38.4607 97.0384 37.904 97.0384 37.3473H97.9091C97.9091 38.0467 97.7521 38.7176 97.4381 39.36C97.124 40.0166 96.6815 40.5876 96.0962 41.0872C95.511 41.5868 94.8258 41.9865 94.0122 42.2863C93.1843 42.586 92.2707 42.743 91.2857 42.743ZM87.8027 33.5217C88.5878 33.5217 89.2873 33.5074 89.8868 33.4646C90.4863 33.4218 91.0002 33.3932 91.4142 33.3504C91.8995 33.3076 92.3135 33.2505 92.6704 33.1791C92.7132 32.9507 92.7703 32.6938 92.8417 32.4083C92.8845 32.1513 92.9273 31.8658 92.9558 31.5518C92.9844 31.2378 93.0129 30.9094 93.0129 30.5669C93.0129 29.5248 92.9273 28.6541 92.7703 27.9403C92.6132 27.2266 92.3991 26.6556 92.1565 26.2131C91.9138 25.7706 91.6283 25.4566 91.3286 25.271C91.0145 25.0854 90.7004 24.9855 90.4007 24.9855C90.1009 24.9855 89.7869 25.0997 89.4728 25.3138C89.1588 25.5422 88.8876 25.9562 88.6449 26.57C88.4023 27.1838 88.2024 28.0545 88.0311 29.168C87.8884 30.2814 87.8027 31.7374 87.8027 33.5217Z" fill="#292F36"/>
<path d="M115.852 41.8725V27.755L103.376 17.877V41.8725H115.852Z" fill="#292F36"/>
<path d="M131.283 41.8725V27.755L119.007 17.877V41.8725H131.283Z" fill="#292F36"/>
</g>
<defs>
<clipPath id="clip0_2_144">
<rect width="132" height="43" fill="white" transform="translate(0 0.390625)"/>
</clipPath>
</defs>
</svg>
