<svg width="36" height="35" viewBox="0 0 36 35" fill="none" xmlns="http://www.w3.org/2000/svg">
<path d="M15.1507 2.09805C16.0476 -0.69935 19.9524 -0.69935 20.8493 2.09805L23.0447 8.94593C23.4457 10.197 24.5961 11.044 25.8939 11.044H32.9984C35.9006 11.044 37.1072 14.8079 34.7593 16.5368L29.0117 20.769C27.9617 21.5421 27.5223 22.9126 27.9234 24.1637L30.1188 31.0116C31.0156 33.809 27.8565 36.1352 25.5085 34.4064L19.761 30.1741C18.7109 29.401 17.2891 29.401 16.239 30.1741L10.4915 34.4064C8.14349 36.1352 4.98442 33.809 5.88119 31.0116L8.07659 24.1637C8.47774 22.9126 8.03834 21.5421 6.98828 20.769L1.24069 16.5368C-1.10723 14.8079 0.0994475 11.044 3.00163 11.044H10.1061C11.4039 11.044 12.5543 10.197 12.9553 8.94593L15.1507 2.09805Z" fill="#FFC226"/>
</svg>
