<svg width="46" height="46" viewBox="0 0 46 46" fill="none" xmlns="http://www.w3.org/2000/svg">
<path d="M0 10.6355C0 4.76169 4.5494 0 10.1614 0H35.8386C41.4507 0 46 4.76169 46 10.6355V35.3645C46 41.2383 41.4507 46 35.8386 46H10.1614C4.5494 46 0 41.2383 0 35.3645V10.6355Z" fill="#AEEA7F"/>
<path d="M16.4503 22.4045H20.6134V27.4478C19.9387 27.6519 19.3023 27.7938 18.7041 27.8736C18.1107 27.9579 17.503 28 16.881 28C15.297 28 14.0864 27.5698 13.249 26.7092C12.4163 25.8444 12 24.6046 12 22.9901C12 21.4199 12.4833 20.1957 13.45 19.3174C14.4213 18.4391 15.766 18 17.4839 18C18.5606 18 19.5989 18.1996 20.599 18.5988L19.8597 20.2489C19.0941 19.894 18.2973 19.7166 17.4695 19.7166C16.5077 19.7166 15.7373 20.016 15.1582 20.6148C14.5792 21.2136 14.2898 22.0186 14.2898 23.03C14.2898 24.0856 14.5218 24.8929 14.986 25.4518C15.455 26.0062 16.1344 26.2834 17.0245 26.2834C17.4886 26.2834 17.96 26.2391 18.4386 26.1504V24.1211H16.4503V22.4045ZM23.1184 27.867V18.1398H25.3435V27.867H23.1184ZM30.1742 27.867H27.985V18.1398H34V19.8297H30.1742V22.338H33.7343V24.0213H30.1742V27.867Z" fill="#577E39"/>
</svg>
