<svg width="46" height="46" viewBox="0 0 46 46" fill="none" xmlns="http://www.w3.org/2000/svg">
<path d="M0 10.6355C0 4.76169 4.54939 0 10.1613 0H35.8387C41.4506 0 46 4.76169 46 10.6355V35.3645C46 41.2383 41.4506 46 35.8387 46H10.1613C4.5494 46 0 41.2383 0 35.3645V10.6355Z" fill="#FFD772"/>
<path fill-rule="evenodd" clip-rule="evenodd" d="M30.8571 15H15.1429C13.4071 15 12 16.4327 12 18.2V27.8C12 29.5673 13.4071 31 15.1429 31H30.8571C32.5929 31 34 29.5673 34 27.8V18.2C34 16.4327 32.5929 15 30.8571 15ZM20.2112 23.3631L17.4772 27.0004C16.9156 27.7477 17.4061 28.8667 18.2955 28.8667H30.8494C31.4323 28.8667 31.9048 28.3546 31.9048 27.7229V24.7323C31.9048 24.4485 31.8075 24.175 31.6318 23.9646L28.9134 20.7096C28.4778 20.1881 27.7154 20.2121 27.3086 20.7601L24.4916 24.5547C24.0849 25.1026 23.3225 25.1266 22.887 24.6053L21.8119 23.3179C21.3781 22.7985 20.6194 22.82 20.2112 23.3631ZM18.2857 19.2667C18.2857 20.4449 17.3476 21.4 16.1905 21.4C15.0333 21.4 14.0952 20.4449 14.0952 19.2667C14.0952 18.0885 15.0333 17.1333 16.1905 17.1333C17.3476 17.1333 18.2857 18.0885 18.2857 19.2667Z" fill="#C59419"/>
</svg>
