<svg width="95" height="95" viewBox="0 0 95 95" fill="none" xmlns="http://www.w3.org/2000/svg">
<path d="M0 20C0 8.9543 8.95431 0 20 0H75C86.0457 0 95 8.95431 95 20V75C95 86.0457 86.0457 95 75 95H20C8.9543 95 0 86.0457 0 75V20Z" fill="#FED8FF"/>
<path d="M59.5887 30H35.5842C34.0622 30 32.6692 30.7369 31.9797 31.9067L27.4388 39.6106C26.757 40.7671 26.8767 42.1544 27.7493 43.2114L44.5285 63.5355C46.1284 65.4734 49.4599 65.4911 51.0874 63.5704L68.2216 43.3484C69.1759 42.2222 69.2597 40.714 68.4346 39.5143L63.0665 31.7081C62.3384 30.6493 61.0164 30 59.5887 30Z" stroke="#E074E3" stroke-width="2"/>
<path d="M27 41H68" stroke="#E074E3" stroke-width="2"/>
<path d="M37.4403 41.9074L45.8215 62.818C46.461 64.4133 49.0795 64.3872 49.676 62.7795L57.4207 41.9074M47.8157 30L59.2268 31.2731C60.5153 31.4169 61.3191 32.5555 60.8783 33.6128L57.4207 41.9074L47.8157 30ZM47.8157 30L35.7839 31.2865C34.5002 31.4237 33.6896 32.5498 34.1133 33.6069L37.4403 41.9074L47.8157 30ZM47.8157 30L37.4403 41.9074L47.8157 30ZM47.8157 30L57.4207 41.9074L47.8157 30Z" stroke="#E074E3" stroke-width="2"/>
</svg>
