<svg width="40" height="40" viewBox="0 0 40 40" fill="none" xmlns="http://www.w3.org/2000/svg">
<path d="M19.519 16.1172C17.0904 16.1172 15.1551 18.0904 15.1551 20.481C15.1551 22.9096 17.0904 24.8449 19.519 24.8449C21.9096 24.8449 23.8828 22.9096 23.8828 20.481C23.8828 18.0904 21.9096 16.1172 19.519 16.1172ZM19.519 23.327C17.9632 23.327 16.673 22.0748 16.673 20.481C16.673 18.9252 17.9252 17.673 19.519 17.673C21.0748 17.673 22.327 18.9252 22.327 20.481C22.327 22.0748 21.0748 23.327 19.519 23.327ZM25.0592 15.9654C25.0592 15.3962 24.6038 14.9408 24.0346 14.9408C23.4654 14.9408 23.0101 15.3962 23.0101 15.9654C23.0101 16.5346 23.4654 16.99 24.0346 16.99C24.6038 16.99 25.0592 16.5346 25.0592 15.9654ZM27.9431 16.99C27.8672 15.6239 27.5636 14.4096 26.577 13.423C25.5904 12.4364 24.3761 12.1328 23.0101 12.0569C21.606 11.981 17.394 11.981 15.99 12.0569C14.6239 12.1328 13.4475 12.4364 12.423 13.423C11.4364 14.4096 11.1328 15.6239 11.0569 16.99C10.981 18.394 10.981 22.606 11.0569 24.0101C11.1328 25.3761 11.4364 26.5525 12.423 27.5771C13.4475 28.5636 14.6239 28.8672 15.99 28.9431C17.394 29.019 21.606 29.019 23.0101 28.9431C24.3761 28.8672 25.5904 28.5636 26.577 27.5771C27.5636 26.5525 27.8672 25.3761 27.9431 24.0101C28.019 22.606 28.019 18.394 27.9431 16.99ZM26.1216 25.4899C25.8561 26.2489 25.2489 26.8181 24.5279 27.1216C23.3896 27.5771 20.7333 27.4631 19.519 27.4631C18.2667 27.4631 15.6105 27.5771 14.51 27.1216C13.7511 26.8181 13.1819 26.2489 12.8783 25.4899C12.423 24.3895 12.5368 21.7333 12.5368 20.481C12.5368 19.2667 12.423 16.6105 12.8783 15.4721C13.1819 14.7511 13.7511 14.1819 14.51 13.8783C15.6105 13.423 18.2667 13.5368 19.519 13.5368C20.7333 13.5368 23.3896 13.423 24.5279 13.8783C25.2489 14.144 25.8181 14.7511 26.1216 15.4721C26.577 16.6105 26.4631 19.2667 26.4631 20.481C26.4631 21.7333 26.577 24.3895 26.1216 25.4899Z" fill="white"/>
</svg>
