<svg width="40" height="40" viewBox="0 0 40 40" fill="none" xmlns="http://www.w3.org/2000/svg">
<path d="M15.5714 28V17.2975H12.25V28H15.5714ZM13.8929 15.8658C14.9643 15.8658 15.8214 14.9709 15.8214 13.8971C15.8214 12.8591 14.9643 12 13.8929 12C12.8571 12 12 12.8591 12 13.8971C12 14.9709 12.8571 15.8658 13.8929 15.8658ZM27.9642 28H28V22.1298C28 19.2662 27.3572 17.047 24 17.047C22.3929 17.047 21.3214 17.9418 20.8571 18.7651H20.8214V17.2975H17.6429V28H20.9643V22.7025C20.9643 21.3065 21.2143 19.9821 22.9286 19.9821C24.6428 19.9821 24.6786 21.5571 24.6786 22.8098V28H27.9642Z" fill="white"/>
</svg>
