<svg width="185" height="61" viewBox="0 0 185 61" fill="none" xmlns="http://www.w3.org/2000/svg">
<g clip-path="url(#clip0_1_6)">
<path d="M45.7627 0.5H14.2373C6.37425 0.5 0 6.76801 0 14.5V46.5C0 54.232 6.37425 60.5 14.2373 60.5H45.7627C53.6258 60.5 60 54.232 60 46.5V14.5C60 6.76801 53.6258 0.5 45.7627 0.5Z" fill="white"/>
<path d="M23.9375 36.1471L12.7826 24.8529H36.0625L47.2174 36.1471H23.9375Z" fill="#365BDD"/>
<path d="M45.3043 33.3235H20.4348C16.7369 33.3235 13.7391 36.2732 13.7391 39.9118C13.7391 43.5503 16.7369 46.5 20.4348 46.5H45.3043C49.0023 46.5 52 43.5503 52 39.9118C52 36.2732 49.0023 33.3235 45.3043 33.3235Z" fill="#29A0F5"/>
<path d="M39.5652 14.5H14.6957C10.9977 14.5 8 17.4497 8 21.0882C8 24.7268 10.9977 27.6765 14.6957 27.6765H39.5652C43.2631 27.6765 46.2609 24.7268 46.2609 21.0882C46.2609 17.4497 43.2631 14.5 39.5652 14.5Z" fill="#29A0F5"/>
<path d="M88.233 36.0407C88.233 38.3132 87.4211 40.1035 85.7972 41.4119C84.1847 42.7203 81.9363 43.3744 79.0519 43.3744C76.3947 43.3744 74.044 42.8694 72 41.8595V36.9015C73.6806 37.659 75.1001 38.1927 76.2584 38.5025C77.4281 38.8124 78.4955 38.9673 79.4607 38.9673C80.619 38.9673 81.5048 38.7435 82.1179 38.2959C82.7425 37.8484 83.0549 37.1826 83.0549 36.299C83.0549 35.8055 82.9185 35.3693 82.646 34.9906C82.3735 34.6004 81.9703 34.2274 81.4366 33.8716C80.9142 33.5158 79.8412 32.9477 78.2172 32.1673C76.6956 31.4442 75.5544 30.7499 74.7936 30.0842C74.0327 29.4186 73.4252 28.644 72.971 27.7602C72.5167 26.8765 72.2896 25.8436 72.2896 24.6615C72.2896 22.435 73.0334 20.6848 74.521 19.4108C76.0199 18.1369 78.0867 17.5 80.7212 17.5C82.0158 17.5 83.2478 17.6549 84.4174 17.9648C85.5984 18.2746 86.8306 18.7107 88.1137 19.2731L86.4105 23.422C85.0817 22.8711 83.9803 22.4866 83.1059 22.2685C82.2428 22.0505 81.3912 21.9414 80.5508 21.9414C79.5515 21.9414 78.7851 22.1768 78.2513 22.6473C77.7176 23.1178 77.4508 23.7319 77.4508 24.4893C77.4508 24.9599 77.5586 25.373 77.7744 25.7288C77.9902 26.0731 78.3309 26.4117 78.7964 26.7445C79.2734 27.0659 80.3919 27.6512 82.152 28.5005C84.4799 29.6252 86.0755 30.7556 86.9384 31.8919C87.8015 33.0166 88.233 34.3996 88.233 36.0407ZM102.797 43.3744C100.56 43.3744 98.8052 42.5539 97.5333 40.9126H97.2608C97.4425 42.5194 97.5333 43.4491 97.5333 43.7015V51.5H92.3381V23.7836H96.5624L97.2949 26.2797H97.5333C98.7484 24.3746 100.548 23.422 102.933 23.422C105.181 23.422 106.941 24.2999 108.213 26.0559C109.485 27.8119 110.122 30.2507 110.122 33.3724C110.122 35.4268 109.821 37.2113 109.219 38.7263C108.628 40.2412 107.782 41.3947 106.68 42.1866C105.579 42.9784 104.284 43.3744 102.797 43.3744ZM101.264 27.6225C99.9805 27.6225 99.0436 28.0242 98.4531 28.8276C97.8626 29.6195 97.556 30.9335 97.5333 32.7699V33.3379C97.5333 35.4038 97.8342 36.8843 98.4361 37.7795C99.0493 38.6747 100.014 39.1223 101.332 39.1223C103.66 39.1223 104.824 37.1826 104.824 33.3035C104.824 31.4099 104.534 29.9925 103.955 29.0513C103.387 28.0988 102.49 27.6225 101.264 27.6225ZM126.507 43.0301L125.503 40.4134H125.366C124.492 41.5267 123.589 42.3013 122.658 42.7375C121.738 43.1621 120.534 43.3744 119.047 43.3744C117.218 43.3744 115.776 42.8465 114.72 41.7906C113.676 40.7348 113.154 39.2313 113.154 37.2802C113.154 35.2374 113.857 33.7339 115.266 32.7699C116.685 31.7943 118.82 31.2549 121.669 31.1516L124.974 31.0484V30.2048C124.974 28.2537 123.987 27.2782 122.01 27.2782C120.489 27.2782 118.7 27.743 116.645 28.6727L114.925 25.1263C117.116 23.9671 119.546 23.3876 122.215 23.3876C124.77 23.3876 126.729 23.95 128.091 25.0747C129.454 26.1994 130.135 27.9094 130.135 30.2048V43.0301H126.507ZM124.974 34.1127L122.964 34.1815C121.454 34.2274 120.33 34.5028 119.591 35.0078C118.854 35.5128 118.485 36.2818 118.485 37.3147C118.485 38.7952 119.325 39.5355 121.006 39.5355C122.21 39.5355 123.168 39.1854 123.884 38.4853C124.611 37.7852 124.974 36.8556 124.974 35.6964V34.1127ZM147.595 43.0301L146.59 40.4134H146.453C145.579 41.5267 144.676 42.3013 143.745 42.7375C142.825 43.1621 141.621 43.3744 140.134 43.3744C138.306 43.3744 136.864 42.8465 135.808 41.7906C134.763 40.7348 134.241 39.2313 134.241 37.2802C134.241 35.2374 134.944 33.7339 136.353 32.7699C137.772 31.7943 139.907 31.2549 142.758 31.1516L146.062 31.0484V30.2048C146.062 28.2537 145.074 27.2782 143.098 27.2782C141.577 27.2782 139.787 27.743 137.732 28.6727L136.012 25.1263C138.204 23.9671 140.634 23.3876 143.303 23.3876C145.857 23.3876 147.816 23.95 149.179 25.0747C150.542 26.1994 151.223 27.9094 151.223 30.2048V43.0301H147.595ZM146.062 34.1127L144.051 34.1815C142.541 34.2274 141.417 34.5028 140.68 35.0078C139.941 35.5128 139.572 36.2818 139.572 37.3147C139.572 38.7952 140.412 39.5355 142.093 39.5355C143.297 39.5355 144.257 39.1854 144.971 38.4853C145.699 37.7852 146.062 36.8556 146.062 35.6964V34.1127ZM164.611 39.1912C165.519 39.1912 166.61 38.9903 167.882 38.5886V42.4964C166.587 43.0818 164.997 43.3744 163.112 43.3744C161.034 43.3744 159.518 42.8465 158.564 41.7906C157.622 40.7233 157.151 39.128 157.151 37.0048V27.7258H154.663V25.505L157.526 23.7491L159.024 19.6863H162.346V23.7836H167.677V27.7258H162.346V37.0048C162.346 37.7508 162.55 38.3017 162.959 38.6575C163.379 39.0133 163.93 39.1912 164.611 39.1912ZM185 43.0301H169.96V39.9314L178.784 27.7947H170.488V23.7836H184.694V27.1921L176.109 39.019H185V43.0301Z" fill="#1B2534"/>
</g>
<defs>
<clipPath id="clip0_1_6">
<rect width="185" height="60" fill="white" transform="translate(0 0.5)"/>
</clipPath>
</defs>
</svg>
