<svg width="185" height="60" viewBox="0 0 185 60" fill="none" xmlns="http://www.w3.org/2000/svg">
<path d="M45.7627 0H14.2373C6.37425 0 0 6.26801 0 14V46C0 53.732 6.37425 60 14.2373 60H45.7627C53.6258 60 60 53.732 60 46V14C60 6.26801 53.6258 0 45.7627 0Z" fill="white"/>
<path d="M23.9375 35.6471L12.7826 24.353H36.0625L47.2174 35.6471H23.9375Z" fill="#365BDD"/>
<path d="M45.3043 32.8237H20.4348C16.7369 32.8237 13.7391 35.7734 13.7391 39.412C13.7391 43.0505 16.7369 46.0002 20.4348 46.0002H45.3043C49.0023 46.0002 52 43.0505 52 39.412C52 35.7734 49.0023 32.8237 45.3043 32.8237Z" fill="#29A0F5"/>
<path d="M39.5652 14H14.6957C10.9977 14 8 16.9497 8 20.5882C8 24.2268 10.9977 27.1765 14.6957 27.1765H39.5652C43.2631 27.1765 46.2609 24.2268 46.2609 20.5882C46.2609 16.9497 43.2631 14 39.5652 14Z" fill="#29A0F5"/>
<path d="M88.233 35.5407C88.233 37.8132 87.4211 39.6035 85.7972 40.9119C84.1847 42.2203 81.9363 42.8744 79.0519 42.8744C76.3947 42.8744 74.044 42.3694 72 41.3595V36.4015C73.6806 37.159 75.1001 37.6927 76.2584 38.0026C77.4281 38.3124 78.4955 38.4673 79.4607 38.4673C80.619 38.4673 81.5048 38.2435 82.1179 37.7959C82.7425 37.3484 83.0549 36.6826 83.0549 35.799C83.0549 35.3055 82.9185 34.8693 82.646 34.4906C82.3735 34.1004 81.9703 33.7274 81.4366 33.3716C80.9142 33.0158 79.8412 32.4477 78.2172 31.6673C76.6956 30.9442 75.5544 30.2499 74.7936 29.5842C74.0327 28.9186 73.4252 28.144 72.971 27.2602C72.5167 26.3765 72.2896 25.3436 72.2896 24.1615C72.2896 21.935 73.0334 20.1848 74.521 18.9108C76.0199 17.6369 78.0867 17 80.7212 17C82.0158 17 83.2478 17.1549 84.4174 17.4648C85.5984 17.7746 86.8306 18.2107 88.1137 18.7731L86.4105 22.922C85.0817 22.3711 83.9803 21.9866 83.1059 21.7685C82.2428 21.5505 81.3912 21.4414 80.5508 21.4414C79.5515 21.4414 78.7851 21.6768 78.2513 22.1473C77.7176 22.6178 77.4508 23.2319 77.4508 23.9893C77.4508 24.4599 77.5586 24.873 77.7744 25.2288C77.9902 25.5731 78.3309 25.9117 78.7964 26.2445C79.2734 26.5659 80.3919 27.1512 82.152 28.0005C84.4799 29.1252 86.0755 30.2556 86.9384 31.3919C87.8015 32.5166 88.233 33.8996 88.233 35.5407ZM102.797 42.8744C100.56 42.8744 98.8052 42.0539 97.5333 40.4126H97.2608C97.4425 42.0194 97.5333 42.9491 97.5333 43.2015V51H92.3381V23.2836H96.5624L97.2949 25.7797H97.5333C98.7484 23.8746 100.548 22.922 102.933 22.922C105.181 22.922 106.941 23.7999 108.213 25.5559C109.485 27.3119 110.122 29.7507 110.122 32.8724C110.122 34.9268 109.821 36.7113 109.219 38.2263C108.628 39.7412 107.782 40.8947 106.68 41.6866C105.579 42.4784 104.284 42.8744 102.797 42.8744ZM101.264 27.1225C99.9805 27.1225 99.0436 27.5242 98.4531 28.3276C97.8626 29.1195 97.556 30.4335 97.5333 32.2699V32.8379C97.5333 34.9038 97.8342 36.3843 98.4361 37.2795C99.0493 38.1747 100.014 38.6223 101.332 38.6223C103.66 38.6223 104.824 36.6826 104.824 32.8035C104.824 30.9099 104.534 29.4925 103.955 28.5513C103.387 27.5988 102.49 27.1225 101.264 27.1225ZM126.507 42.5301L125.503 39.9134H125.366C124.492 41.0267 123.589 41.8013 122.658 42.2375C121.738 42.6621 120.534 42.8744 119.047 42.8744C117.218 42.8744 115.776 42.3465 114.72 41.2906C113.676 40.2348 113.154 38.7313 113.154 36.7802C113.154 34.7374 113.857 33.2339 115.266 32.2699C116.685 31.2943 118.82 30.7549 121.669 30.6516L124.974 30.5484V29.7048C124.974 27.7537 123.987 26.7782 122.01 26.7782C120.489 26.7782 118.7 27.243 116.645 28.1727L114.925 24.6263C117.116 23.4671 119.546 22.8876 122.215 22.8876C124.77 22.8876 126.729 23.45 128.091 24.5747C129.454 25.6994 130.135 27.4094 130.135 29.7048V42.5301H126.507ZM124.974 33.6127L122.964 33.6815C121.454 33.7274 120.33 34.0028 119.591 34.5078C118.854 35.0128 118.485 35.7818 118.485 36.8147C118.485 38.2952 119.325 39.0355 121.006 39.0355C122.21 39.0355 123.168 38.6854 123.884 37.9853C124.611 37.2852 124.974 36.3556 124.974 35.1964V33.6127ZM147.595 42.5301L146.59 39.9134H146.453C145.579 41.0267 144.676 41.8013 143.745 42.2375C142.825 42.6621 141.621 42.8744 140.134 42.8744C138.306 42.8744 136.864 42.3465 135.808 41.2906C134.763 40.2348 134.241 38.7313 134.241 36.7802C134.241 34.7374 134.944 33.2339 136.353 32.2699C137.772 31.2943 139.907 30.7549 142.758 30.6516L146.062 30.5484V29.7048C146.062 27.7537 145.074 26.7782 143.098 26.7782C141.577 26.7782 139.787 27.243 137.732 28.1727L136.012 24.6263C138.204 23.4671 140.634 22.8876 143.303 22.8876C145.857 22.8876 147.816 23.45 149.179 24.5747C150.542 25.6994 151.223 27.4094 151.223 29.7048V42.5301H147.595ZM146.062 33.6127L144.051 33.6815C142.541 33.7274 141.417 34.0028 140.68 34.5078C139.941 35.0128 139.572 35.7818 139.572 36.8147C139.572 38.2952 140.412 39.0355 142.093 39.0355C143.297 39.0355 144.257 38.6854 144.971 37.9853C145.699 37.2852 146.062 36.3556 146.062 35.1964V33.6127ZM164.611 38.6912C165.519 38.6912 166.61 38.4903 167.882 38.0886V41.9964C166.587 42.5818 164.997 42.8744 163.112 42.8744C161.034 42.8744 159.518 42.3465 158.564 41.2906C157.622 40.2233 157.151 38.628 157.151 36.5048V27.2258H154.663V25.005L157.526 23.2491L159.024 19.1863H162.346V23.2836H167.677V27.2258H162.346V36.5048C162.346 37.2508 162.55 37.8017 162.959 38.1575C163.379 38.5133 163.93 38.6912 164.611 38.6912ZM185 42.5301H169.96V39.4314L178.784 27.2947H170.488V23.2836H184.694V26.6921L176.109 38.519H185V42.5301Z" fill="white"/>
</svg>
