<svg width="42" height="43" viewBox="0 0 42 43" fill="none" xmlns="http://www.w3.org/2000/svg">
<g clip-path="url(#clip0_3207_44)">
<path d="M0 10.2107C0 4.84764 4.34764 0.5 9.71077 0.5H32.2893C37.6524 0.5 42 4.84764 42 10.2108V32.7893C42 38.1524 37.6524 42.5 32.2893 42.5H9.71068C4.34764 42.5 0 38.1524 0 32.7893V10.2107Z" fill="#001E36"/>
<path d="M13.3398 20.9278H14.4387C15.4659 20.9278 16.2344 20.7263 16.7444 20.3232C17.2543 19.913 17.5093 19.3192 17.5093 18.5418C17.5093 17.7573 17.2938 17.1779 16.8629 16.8036C16.4391 16.4294 15.7712 16.2422 14.8589 16.2422H13.3398V20.9278ZM20.8815 18.4231C20.8815 20.1217 20.35 21.4208 19.2869 22.3205C18.2312 23.2202 16.7264 23.6701 14.7728 23.6701H13.3398V29.2841H10V13.5H15.0313C16.9418 13.5 18.3927 13.9139 19.3839 14.7416C20.3823 15.5621 20.8815 16.7892 20.8815 18.4231ZM32 25.6997C32 26.9378 31.5691 27.8806 30.7071 28.5284C29.8524 29.1761 28.5704 29.5 26.8609 29.5C25.9846 29.5 25.2377 29.4389 24.6199 29.3165C24.0022 29.2013 23.424 29.0286 22.8854 28.7982V26.0776C23.4959 26.3656 24.1818 26.6067 24.9431 26.801C25.7117 26.9953 26.3868 27.0924 26.9687 27.0924C28.1609 27.0924 28.7571 26.747 28.7571 26.056C28.7571 25.7969 28.6781 25.5882 28.5201 25.4298C28.362 25.2643 28.0891 25.0807 27.7012 24.8792C27.3134 24.6705 26.7963 24.4294 26.1498 24.1558C25.2233 23.7673 24.541 23.4073 24.1029 23.0763C23.6718 22.7452 23.3558 22.3673 23.1548 21.9426C22.9608 21.5108 22.8639 20.9818 22.8639 20.3556C22.8639 19.2832 23.2769 18.4555 24.1029 17.8724C24.936 17.2823 26.1139 16.9872 27.6367 16.9872C29.0875 16.9872 30.4988 17.3038 31.8707 17.9372L30.8795 20.3124C30.2762 20.0533 29.7124 19.841 29.188 19.6754C28.6637 19.5099 28.1286 19.4271 27.5828 19.4271C26.6132 19.4271 26.1283 19.6899 26.1283 20.2152C26.1283 20.5104 26.2828 20.7659 26.5916 20.9818C26.9076 21.1977 27.5935 21.518 28.6493 21.9426C29.5903 22.3241 30.2798 22.6804 30.7179 23.0115C31.1561 23.3425 31.4793 23.724 31.6875 24.1558C31.8958 24.5878 32 25.1024 32 25.6997Z" fill="#30A8FF"/>
</g>
<defs>
<clipPath id="clip0_3207_44">
<rect width="42" height="42" fill="white" transform="translate(0 0.5)"/>
</clipPath>
</defs>
</svg>
