<svg width="95" height="95" viewBox="0 0 95 95" fill="none" xmlns="http://www.w3.org/2000/svg">
<path d="M0 20C0 8.9543 8.95431 0 20 0H75C86.0457 0 95 8.95431 95 20V75C95 86.0457 86.0457 95 75 95H20C8.9543 95 0 86.0457 0 75V20Z" fill="#C4F5C9"/>
<path d="M55 50V35.8571C55 34.0385 54.1571 32.2944 52.6569 31.0084C51.1566 29.7225 49.1217 29 47 29C44.8783 29 42.8434 29.7225 41.3431 31.0084C39.8428 32.2944 39 34.0385 39 35.8571V50" stroke="#5EBA67" stroke-width="2.5" stroke-linecap="round" stroke-linejoin="round"/>
<path d="M58.35 45H36.65C34.0819 45 32 46.6592 32 48.7059V62.2941C32 64.3408 34.0819 66 36.65 66H58.35C60.9181 66 63 64.3408 63 62.2941V48.7059C63 46.6592 60.9181 45 58.35 45Z" stroke="#5EBA67" stroke-width="2.5" stroke-linecap="round" stroke-linejoin="round"/>
</svg>
