<svg width="40" height="40" viewBox="0 0 40 40" fill="none" xmlns="http://www.w3.org/2000/svg">
<path d="M27.1683 16.7229C27.8728 16.1807 28.5069 15.5301 29 14.7711C28.366 15.0602 27.6263 15.2771 26.8866 15.3494C27.6615 14.8795 28.2251 14.1566 28.5069 13.253C27.8024 13.6867 26.9922 14.012 26.182 14.1928C25.4775 13.4337 24.5265 13 23.4697 13C21.4266 13 19.7711 14.6988 19.7711 16.7952C19.7711 17.0843 19.8063 17.3735 19.8767 17.6626C16.8121 17.4819 14.0646 15.9639 12.2329 13.6867C11.9159 14.2289 11.7397 14.8795 11.7397 15.6024C11.7397 16.9036 12.3738 18.0602 13.3953 18.747C12.7965 18.7108 12.1977 18.5663 11.7045 18.2771V18.3132C11.7045 20.1566 12.9726 21.6747 14.6634 22.0361C14.3816 22.1084 14.0294 22.1807 13.7123 22.1807C13.4658 22.1807 13.2544 22.1446 13.0078 22.1084C13.4658 23.6265 14.8395 24.7109 16.4599 24.7469C15.1918 25.759 13.6067 26.3735 11.8806 26.3735C11.5636 26.3735 11.2818 26.3373 11 26.3012C12.6204 27.3855 14.5577 28 16.6713 28C23.4697 28 27.1683 22.253 27.1683 17.2289C27.1683 17.0482 27.1683 16.9036 27.1683 16.7229Z" fill="white"/>
</svg>
