<svg width="46" height="46" viewBox="0 0 46 46" fill="none" xmlns="http://www.w3.org/2000/svg">
<path d="M0 10.6355C0 4.76169 4.54939 0 10.1613 0H35.8386C41.4506 0 46 4.76169 46 10.6355V35.3645C46 41.2383 41.4506 46 35.8386 46H10.1613C4.5494 46 0 41.2383 0 35.3645V10.6355Z" fill="#88A2FF"/>
<path d="M27.1176 16H14.8824C13.8428 16 13 16.8954 13 18V28C13 29.1046 13.8428 30 14.8824 30H27.1176C28.1572 30 29 29.1046 29 28V18C29 16.8954 28.1572 16 27.1176 16Z" fill="#365BDD"/>
<path d="M25.3998 23.7225C24.8667 23.3543 24.8667 22.6457 25.3998 22.2775L31.3037 18.1988C31.9912 17.7239 33 18.1535 33 18.9213V27.0787C33 27.8465 31.9912 28.2761 31.3037 27.8012L25.3998 23.7225Z" fill="#365BDD"/>
</svg>
