<svg width="42" height="43" viewBox="0 0 42 43" fill="none" xmlns="http://www.w3.org/2000/svg">
<g clip-path="url(#clip0_3207_50)">
<path d="M0 10.2107C0 4.84764 4.34764 0.5 9.71077 0.5H32.2893C37.6524 0.5 42 4.84764 42 10.2108V32.7893C42 38.1524 37.6524 42.5 32.2893 42.5H9.71068C4.34764 42.5 0 38.1524 0 32.7893V10.2107Z" fill="#470137"/>
<path d="M22.0978 28.3097H18.7035L15.4435 23.0463L12.1834 28.3097H9L13.6504 21.1332L9.29724 14.3947H12.5765L15.5969 19.401L18.5597 14.3947H21.7622L17.3611 21.295L22.0978 28.3097ZM27.0264 28.5C25.767 28.5 24.7762 28.0146 24.0539 27.0438C23.338 26.073 22.98 24.7278 22.98 23.0082C22.98 21.2633 23.3444 19.9055 24.0731 18.9347C24.8082 17.9575 25.8182 17.4689 27.103 17.4689C28.4518 17.4689 29.481 17.9892 30.1905 19.0298H30.2864C30.1394 18.2367 30.0659 17.5292 30.0659 16.9074V13.5H33V28.3097H30.7563L30.1905 26.9296H30.0659C29.4011 27.9765 28.3879 28.5 27.0264 28.5ZM28.0523 26.1872C28.8002 26.1872 29.3468 25.9714 29.6919 25.54C30.0435 25.1085 30.2353 24.3756 30.2673 23.3413V23.0273C30.2673 21.8852 30.0883 21.0667 29.7303 20.5717C29.3787 20.0767 28.8034 19.8293 28.0044 19.8293C27.3523 19.8293 26.8441 20.1053 26.4798 20.6573C26.1219 21.203 25.9429 21.9994 25.9429 23.0463C25.9429 24.0933 26.125 24.8801 26.4894 25.4067C26.8538 25.927 27.3747 26.1872 28.0523 26.1872Z" fill="#FF61F6"/>
</g>
<defs>
<clipPath id="clip0_3207_50">
<rect width="42" height="42" fill="white" transform="translate(0 0.5)"/>
</clipPath>
</defs>
</svg>
